<?xml version="1.0" standalone="no"?>
<!DOCTYPE svg PUBLIC "-//W3C//DTD SVG 20010904//EN"
 "http://www.w3.org/TR/2001/REC-SVG-20010904/DTD/svg10.dtd">
<svg version="1.0" xmlns="http://www.w3.org/2000/svg"
 width="1536.000000pt" height="1024.000000pt" viewBox="0 0 1536.000000 1024.000000"
 preserveAspectRatio="xMidYMid meet">
<metadata>
Created by potrace 1.16, written by Peter Selinger 2001-2019
</metadata>
<g transform="translate(0.000000,1024.000000) scale(0.100000,-0.100000)"
fill="#000000" stroke="none">
<path d="M0 5120 l0 -5120 7680 0 7680 0 0 5120 0 5120 -7680 0 -7680 0 0
-5120z m11689 3789 c31 -19 33 -23 28 -62 -61 -490 -166 -1188 -183 -1214 -20
-32 -109 -33 -148 -2 -33 26 -33 54 -5 227 11 70 49 331 85 581 48 341 68 459
81 473 23 25 98 24 142 -3z m1279 -419 c43 -19 64 -52 54 -80 -10 -27 -694
-1075 -710 -1087 -24 -19 -70 -16 -109 8 -39 25 -54 54 -42 85 4 12 72 120
151 240 194 294 371 566 452 694 107 169 120 178 204 140z m1037 -893 c23 -13
44 -34 49 -50 21 -60 10 -69 -319 -278 -171 -107 -415 -264 -544 -347 -129
-84 -242 -152 -252 -152 -10 0 -33 13 -50 28 -36 32 -52 109 -27 130 20 16
524 343 648 420 58 35 155 98 215 138 102 67 219 134 234 134 3 0 24 -10 46
-23z m-2822 -252 c68 -24 181 -101 262 -178 l69 -66 43 14 c130 44 250 40 388
-14 134 -52 291 -180 387 -316 l49 -69 87 -18 c257 -51 444 -227 508 -476 l18
-70 50 -7 c27 -3 91 -19 142 -36 251 -80 357 -265 341 -599 -17 -367 -168
-725 -384 -912 -24 -20 -50 -41 -57 -45 -9 -5 -27 -66 -46 -153 -111 -511
-251 -811 -490 -1050 -165 -165 -370 -287 -583 -347 l-97 -27 -24 -81 c-221
-736 -317 -1038 -351 -1105 -48 -94 -154 -163 -269 -175 -71 -8 -407 38 -596
81 -457 103 -902 334 -1273 658 -197 173 -281 321 -248 441 6 22 42 94 81 160
89 152 222 413 354 698 149 322 144 260 38 483 -146 305 -233 529 -282 724
-39 158 -50 239 -50 373 0 141 22 237 84 362 87 175 195 292 462 504 l81 64
43 111 c130 339 311 637 499 826 131 132 282 223 411 249 30 6 64 13 75 15 44
10 231 -3 278 -19z m-4631 -468 c225 -59 370 -183 452 -386 48 -119 56 -187
56 -481 l0 -270 -300 0 -300 0 0 218 c0 253 -9 301 -64 350 -46 40 -97 56
-163 49 -68 -7 -118 -38 -146 -91 -21 -39 -22 -53 -22 -251 0 -315 -11 -297
385 -639 410 -355 469 -417 545 -577 59 -124 65 -174 65 -534 0 -281 -2 -330
-19 -400 -65 -268 -229 -436 -496 -506 -57 -15 -124 -22 -236 -26 -432 -16
-694 97 -819 350 -61 124 -70 190 -70 525 l0 287 314 -3 315 -3 3 -242 c3
-237 4 -244 28 -292 34 -64 89 -95 172 -95 95 0 160 41 188 120 18 51 25 332
11 416 -15 84 -47 157 -92 209 -19 21 -149 138 -289 259 -301 260 -492 447
-542 531 -47 78 -77 168 -94 280 -19 123 -18 480 1 608 55 363 263 564 640
617 33 5 132 7 220 5 132 -2 177 -7 257 -28z m-4458 -1482 l-1 -1455 354 0
354 0 -1 -280 -1 -280 -677 0 -677 0 2 1737 c2 956 3 1738 3 1738 0 0 145 -1
322 -2 l322 -2 0 -1456z m2184 1178 l2 -278 -325 1 -325 1 -2 -438 -3 -439
298 0 297 0 0 -292 0 -293 -295 0 -296 0 1 -727 0 -728 -310 0 -310 0 0 1738
0 1737 632 -2 633 -3 3 -277z m878 -1458 l2 -1735 -314 0 -314 0 0 1738 0
1737 312 -2 312 -3 2 -1735z m3679 1459 l0 -276 -240 -2 -240 -1 0 -1457 0
-1458 -322 0 -323 0 0 1459 0 1459 -250 -1 -250 -2 0 280 0 280 812 -2 813 -3
0 -276z"/>
<path d="M10901 7165 c-188 -42 -374 -195 -534 -437 -73 -110 -192 -337 -182
-347 3 -2 13 3 22 11 31 26 215 130 308 174 240 112 396 97 610 -61 33 -24
143 -103 245 -175 214 -151 199 -152 208 13 16 316 -214 726 -456 811 -64 23
-149 27 -221 11z"/>
<path d="M11680 6922 c-19 -11 -35 -23 -34 -28 0 -5 13 -36 28 -68 39 -84 75
-196 92 -284 27 -142 13 -347 -30 -431 l-15 -27 126 -95 c220 -165 309 -283
320 -423 18 -224 -138 -425 -408 -523 -66 -24 -88 -27 -211 -27 l-136 -1 26
-49 c30 -54 57 -70 139 -81 106 -14 233 38 344 143 153 143 251 337 323 640
74 306 50 760 -51 979 -35 75 -168 198 -268 248 -97 48 -189 58 -245 27z"/>
<path d="M12453 6468 c33 -131 39 -496 13 -682 -55 -381 -191 -685 -397 -888
l-88 -87 57 -28 c50 -24 69 -28 148 -28 83 0 95 3 159 35 164 83 314 291 389
540 76 255 98 649 47 845 -40 149 -127 255 -243 294 -80 27 -92 27 -85 -1z"/>
<path d="M10664 6421 c-166 -61 -507 -277 -759 -480 -257 -207 -321 -275 -390
-411 -41 -82 -54 -125 -64 -225 -28 -262 67 -591 324 -1122 58 -120 105 -228
105 -240 0 -61 -352 -799 -504 -1058 -42 -71 -76 -134 -76 -141 0 -28 86 -138
176 -224 383 -369 910 -611 1512 -694 203 -29 289 -17 320 41 18 33 140 415
258 803 64 212 122 406 130 431 14 46 15 47 64 53 76 10 215 53 312 96 122 53
245 138 341 234 187 187 301 417 397 799 36 145 36 148 16 143 -143 -36 -296
1 -431 105 -54 41 -63 45 -90 36 -16 -5 -75 -9 -130 -10 -85 0 -110 3 -168 26
-68 27 -141 71 -188 114 -23 21 -28 22 -60 11 -19 -7 -70 -12 -114 -13 l-80 0
0 -180 c0 -193 -7 -236 -62 -375 -46 -114 -146 -260 -202 -293 -66 -39 -134
-12 -147 59 -7 38 1 54 73 147 109 141 162 304 149 466 -21 276 -160 490 -456
702 l-96 68 -71 -28 c-159 -65 -399 -108 -461 -82 -51 21 -70 106 -34 151 16
20 33 24 121 31 95 8 175 24 258 50 l33 10 -49 60 c-75 93 -85 160 -34 215 21
22 30 25 61 20 25 -4 43 -15 56 -33 11 -16 62 -71 115 -124 141 -141 324 -254
525 -321 113 -38 246 -44 336 -14 131 44 229 115 271 198 27 53 23 152 -9 213
-35 68 -163 174 -437 363 -83 57 -235 166 -340 242 -248 182 -268 193 -370
197 -60 3 -93 -1 -131 -16z m-194 -2811 c86 -44 395 -91 492 -76 95 15 122
-115 30 -145 -55 -18 -215 -13 -306 11 -188 48 -308 138 -277 206 13 29 12 29
61 4z"/>
<path d="M13006 5814 c-24 -485 -160 -844 -408 -1081 -73 -70 -73 -69 12 -103
208 -82 478 98 609 405 117 278 150 582 78 739 -42 92 -133 158 -239 172 l-45
6 -7 -138z"/>
</g>
</svg>
