<?xml version="1.0" standalone="no"?>
<!DOCTYPE svg PUBLIC "-//W3C//DTD SVG 20010904//EN"
 "http://www.w3.org/TR/2001/REC-SVG-20010904/DTD/svg10.dtd">
<svg version="1.0" xmlns="http://www.w3.org/2000/svg"
 width="1024.000000pt" height="1536.000000pt" viewBox="0 0 1024.000000 1536.000000"
 preserveAspectRatio="xMidYMid meet">

<g transform="translate(0.000000,1536.000000) scale(0.100000,-0.100000)"
fill="#000000" stroke="none">
<path d="M0 7680 l0 -7680 5120 0 5120 0 0 7680 0 7680 -5120 0 -5120 0 0
-7680z m3690 7111 c69 -6 143 -13 165 -15 63 -6 255 -42 345 -65 90 -23 241
-70 267 -83 83 -42 95 -48 105 -48 12 0 152 -82 156 -92 2 -5 8 -8 13 -8 32 0
289 -228 289 -256 0 -7 11 -19 25 -28 14 -9 25 -22 25 -30 0 -7 9 -21 20 -31
11 -10 31 -41 45 -69 14 -28 30 -58 35 -66 17 -27 59 -129 66 -157 3 -16 10
-39 14 -53 5 -14 11 -38 14 -55 3 -16 12 -61 20 -100 26 -131 35 -200 41 -318
4 -66 9 -125 12 -133 3 -8 -10 -31 -28 -51 -37 -43 -104 -182 -119 -246 -11
-53 -14 -157 -6 -217 20 -137 -207 -492 -393 -615 -22 -15 -41 -32 -41 -36 0
-5 -6 -9 -13 -9 -7 0 -27 -13 -44 -29 -84 -76 -443 -245 -532 -250 -19 -1 -10
-127 14 -196 41 -122 132 -289 216 -397 11 -16 18 -28 15 -28 -19 0 -214 94
-275 132 -118 74 -296 252 -333 333 -14 31 -15 31 -193 0 -79 -13 -195 -27
-257 -31 l-113 -6 -12 44 c-24 90 -120 183 -273 265 -82 44 -106 52 -178 60
-39 5 -41 3 -35 -14 5 -11 26 -41 48 -68 67 -79 124 -167 145 -223 11 -29 20
-56 20 -60 0 -4 -17 -6 -37 -5 -21 1 -85 2 -142 4 -114 2 -313 15 -376 25 -39
6 -66 9 -112 12 -15 1 -33 17 -50 45 -26 39 -28 50 -28 147 0 97 2 110 32 172
17 37 46 88 62 112 17 25 31 48 31 52 0 4 -23 4 -51 1 -165 -20 -347 -208
-383 -396 l-11 -58 -90 19 c-49 11 -99 21 -110 23 -11 2 -67 20 -125 40 -58
20 -109 37 -115 39 -45 10 -315 160 -335 186 -3 3 -25 20 -50 37 -93 64 -229
221 -288 334 -90 168 -144 340 -157 498 -3 35 -8 68 -11 72 -6 10 -6 321 1
399 4 59 14 128 21 163 3 12 7 38 11 57 13 82 88 317 119 374 19 33 37 68 41
76 15 34 73 118 107 154 21 22 40 45 44 51 8 12 138 124 192 165 18 14 56 38
84 54 28 16 58 34 66 41 8 7 44 25 80 39 36 15 74 31 85 36 55 26 224 88 255
95 19 4 73 18 120 32 143 42 181 51 295 74 61 12 117 22 125 24 8 1 40 5 70 9
30 4 78 11 105 17 28 5 60 11 72 14 13 2 71 7 130 11 60 3 146 9 193 13 139
10 725 5 860 -8z m3798 -2009 c-43 -30 -133 -104 -145 -120 -7 -9 -13 -11 -13
-4 0 6 32 37 70 68 39 31 69 59 66 61 -2 3 -35 0 -73 -6 -37 -7 -81 -14 -98
-16 l-30 -5 30 11 c44 15 177 36 198 31 16 -4 15 -6 -5 -20z m-374 -3 c-10
-12 -41 -39 -69 -61 l-50 -40 44 41 c24 23 41 41 37 41 -8 0 -201 -111 -299
-172 -44 -27 -81 -47 -83 -45 -8 8 413 256 435 257 2 0 -4 -10 -15 -21z m111
-35 c-22 -8 -59 -21 -82 -28 -23 -8 -63 -26 -89 -40 -25 -14 -52 -26 -58 -26
-18 0 95 59 138 72 23 7 52 18 66 25 14 7 34 13 45 12 12 0 3 -6 -20 -15z
m-415 -47 c0 -1 -33 -34 -72 -72 -40 -39 -60 -55 -44 -38 16 18 28 34 25 37
-5 4 -190 -107 -318 -192 -52 -35 -99 -61 -104 -59 -20 6 -18 25 8 55 14 16
25 32 25 35 0 2 -46 -25 -102 -62 -135 -88 -213 -131 -238 -131 -34 0 -235
108 -285 153 -11 10 -21 13 -23 8 -3 -10 -23 10 -62 64 -8 11 2 6 22 -12 84
-72 305 -203 342 -203 39 0 259 134 374 227 23 19 42 32 42 29 0 -2 -25 -35
-55 -71 -87 -106 -78 -109 54 -21 53 35 121 78 151 95 68 40 198 120 230 144
24 17 30 20 30 14z m788 -52 c3 -3 -2 -5 -11 -5 -9 0 -17 -6 -17 -12 0 -10 -2
-10 -9 0 -5 8 -41 15 -102 18 -52 3 -96 8 -99 11 -6 7 232 -6 238 -12z m82
-65 l35 -19 -55 1 c-49 1 -51 1 -20 8 l35 6 -30 8 c-16 4 -41 12 -55 17 -19 7
-16 8 15 3 21 -3 55 -14 75 -24z m-92 -27 c-10 -2 -26 -2 -35 0 -10 3 -2 5 17
5 19 0 27 -2 18 -5z m-2028 -70 c19 -16 61 -48 93 -72 31 -24 57 -46 57 -48 0
-3 -8 1 -19 8 -10 8 -45 33 -77 55 -33 23 -68 51 -78 63 -31 34 -39 26 -33
-34 3 -30 2 -53 -2 -51 -4 3 -9 33 -10 67 -1 35 -5 68 -8 73 -4 6 4 1 18 -11
13 -12 40 -34 59 -50z m2006 31 c50 -21 164 -96 189 -125 12 -13 14 -19 5 -13
-8 4 -53 14 -100 21 l-85 12 75 -5 75 -4 -30 24 c-16 14 -61 41 -100 62 -93
49 -104 59 -29 28z m-2162 -52 c22 -21 52 -45 65 -55 14 -9 23 -19 20 -22 -3
-2 -33 17 -66 44 -43 34 -64 46 -71 39 -8 -8 -9 -4 -5 11 3 11 8 21 11 21 2 0
23 -17 46 -38z m-74 -103 c-11 -46 -23 -114 -26 -151 -4 -38 -10 -68 -14 -68
-4 0 -6 10 -4 23 2 12 6 42 8 67 8 75 44 225 52 217 2 -2 -5 -42 -16 -88z
m381 34 c13 -16 12 -17 -3 -4 -17 13 -22 21 -14 21 2 0 10 -8 17 -17z m2030
-175 c7 -14 6 -18 -6 -18 -9 0 -13 5 -10 10 4 6 -32 48 -79 93 -47 45 -86 85
-86 89 0 9 170 -153 181 -174z m-31 -4 c0 -2 -16 -4 -35 -4 -19 0 -35 4 -35 8
0 4 16 6 35 4 19 -2 35 -6 35 -8z m-8 -124 c25 -41 54 -91 63 -110 30 -58 83
-223 77 -240 -4 -9 -9 3 -14 28 -14 84 -74 226 -91 215 -6 -3 -7 -1 -3 6 8 12
-48 121 -91 177 -12 17 -23 34 -23 39 0 13 34 -35 82 -115z m-2409 -27 c2 -35
1 -63 -4 -63 -5 0 -9 30 -9 67 0 81 6 79 13 -4z m2047 31 c14 -8 16 -12 5 -7
-11 4 -65 8 -120 8 -89 0 -108 -3 -170 -30 -74 -31 -215 -139 -335 -256 -36
-35 -86 -81 -110 -101 -25 -20 -74 -61 -109 -90 -80 -67 -153 -118 -166 -117
-5 0 -2 6 9 12 80 51 320 251 416 347 19 20 59 56 89 80 29 25 59 50 65 55 38
34 156 94 211 108 49 12 191 6 215 -9z m113 -46 c22 -11 37 -21 35 -23 -2 -2
-30 10 -63 26 -33 17 -49 27 -35 23 14 -3 42 -15 63 -26z m52 -67 c-12 -12
-19 -11 -50 3 -61 29 -194 19 -272 -19 -34 -17 -59 -27 -56 -22 3 5 33 22 67
38 53 25 72 29 151 29 67 0 97 -4 113 -16 28 -19 54 -12 46 13 -5 15 -4 16 5
3 7 -11 7 -19 -4 -29z m-2206 -34 c1 -5 -3 -5 -9 -2 -5 3 -10 16 -9 28 0 21 1
21 9 2 5 -11 9 -24 9 -28z m227 -11 c17 -12 98 -95 181 -186 83 -91 169 -180
191 -197 l40 -33 7 41 c9 55 17 44 9 -14 l-7 -46 -61 52 c-34 29 -88 81 -120
117 -194 212 -243 261 -273 272 -18 7 -33 15 -33 20 0 10 29 -1 66 -26z m-135
3 c-18 -11 -35 -18 -38 -15 -5 5 46 35 62 36 6 0 -5 -9 -24 -21z m-94 -31 c-3
-8 -6 -5 -6 6 -1 11 2 17 5 13 3 -3 4 -12 1 -19z m1802 6 c-7 -9 -33 -30 -58
-47 -25 -17 -49 -35 -53 -41 -4 -6 -10 -7 -14 -4 -3 4 15 22 41 40 27 18 57
41 69 50 26 22 32 23 15 2z m1413 -10 c68 -35 137 -132 117 -163 -9 -14 -10
-14 -5 2 10 31 -62 124 -118 154 -47 25 -135 22 -190 -6 -82 -43 -169 -146
-231 -276 -30 -63 -55 -119 -55 -125 0 -7 -7 -24 -15 -38 -8 -15 -37 -83 -66
-152 -28 -69 -55 -129 -60 -135 -8 -8 46 135 71 190 5 11 36 82 69 158 75 175
112 236 186 310 81 81 142 110 215 101 30 -3 67 -12 82 -20z m-3195 -31 c-25
-25 -26 -25 -24 -5 0 11 4 19 8 16 5 -2 14 2 21 10 7 8 15 12 17 10 3 -3 -7
-17 -22 -31z m2000 -90 c-20 -2 -52 -2 -70 0 -17 2 0 4 38 4 39 0 53 -2 32 -4z
m1206 -30 c21 -15 43 -36 49 -47 7 -12 -5 -5 -28 16 -47 47 -86 55 -157 34
-45 -13 -65 -26 -102 -69 -26 -28 -62 -83 -81 -121 -20 -37 -37 -66 -40 -63
-10 10 77 153 122 199 76 77 169 98 237 51z m-1186 -4 c-9 -6 -15 -14 -12 -20
3 -5 -1 -6 -11 -2 -16 6 -15 7 2 20 10 7 23 13 28 13 6 0 3 -5 -7 -11z m146
-6 c-7 -2 -19 -2 -25 0 -7 3 -2 5 12 5 14 0 19 -2 13 -5z m-53 -13 c-11 -7
-60 -2 -60 6 0 2 16 3 35 2 20 -1 31 -4 25 -8z m22 -49 c-58 -56 -66 -70 -75
-131 -3 -17 -5 -14 -6 12 -1 48 20 84 83 135 28 23 53 43 55 43 2 0 -24 -27
-57 -59z m-1474 -11 c-6 -25 -15 -49 -21 -55 -7 -7 -8 -4 -4 7 3 9 11 35 17
58 15 56 22 47 8 -10z m1877 -30 c3 -41 8 -91 10 -110 4 -23 2 -30 -4 -20 -9
15 -25 218 -17 209 3 -2 8 -38 11 -79z m-616 -5 c38 -19 63 -82 60 -154 -3
-68 -18 -119 -57 -197 -26 -50 -38 -63 -83 -86 -85 -43 -319 -125 -374 -132
-120 -15 -125 -14 -200 52 -44 40 -56 93 -35 167 13 45 63 125 78 125 4 0 6
-17 4 -38 -8 -84 45 -214 100 -243 32 -17 102 -12 146 10 112 57 118 322 8
390 -45 28 -38 36 59 73 131 49 240 62 294 33z m131 -205 c-6 -23 -13 -40 -15
-38 -3 2 0 20 5 39 6 18 11 47 11 64 2 29 2 29 6 3 2 -14 -1 -45 -7 -68z
m-1687 23 c66 -29 67 -30 42 -41 -37 -17 -55 -69 -55 -160 0 -66 4 -87 28
-133 80 -159 230 -117 234 67 l1 49 28 -58 c25 -53 27 -61 16 -104 -17 -65
-51 -84 -133 -71 -121 19 -239 63 -282 106 -15 15 -30 21 -40 17 -9 -3 -14 -3
-10 0 3 4 -4 28 -17 54 -29 57 -49 110 -37 96 4 -5 17 -30 27 -55 18 -43 54
-94 62 -86 2 2 -1 16 -8 32 -6 16 -13 38 -16 49 -7 28 -19 266 -13 271 12 13
112 -7 173 -33z m2184 -45 c-2 -18 -4 -6 -4 27 0 33 2 48 4 33 2 -15 2 -42 0
-60z m275 40 c-22 -53 -27 -109 -12 -140 11 -22 11 -22 -5 -3 -20 25 -15 106
9 153 24 46 28 39 8 -10z m-1923 -32 c-3 -3 -11 5 -18 17 -13 21 -12 21 5 5
10 -10 16 -20 13 -22z m1121 -57 c-7 -11 -18 -28 -25 -37 -8 -9 -32 -41 -55
-69 -22 -29 -46 -53 -52 -53 -7 0 -3 6 7 14 11 8 45 48 74 90 53 75 72 96 51
55z m537 -66 c-2 -16 -4 -3 -4 27 0 30 2 43 4 28 2 -16 2 -40 0 -55z m-1800
-25 c-3 -8 -6 -5 -6 6 -1 11 2 17 5 13 3 -3 4 -12 1 -19z m2083 -33 c0 -17 -2
-17 -10 -5 -5 8 -10 24 -10 35 0 17 2 17 10 5 5 -8 10 -24 10 -35z m-2757
-176 c-4 -5 -6 40 -3 99 l5 107 3 -99 c1 -55 -1 -103 -5 -107z m2474 179 c-3
-8 -6 -5 -6 6 -1 11 2 17 5 13 3 -3 4 -12 1 -19z m-10 -50 c-3 -7 -5 -2 -5 12
0 14 2 19 5 13 2 -7 2 -19 0 -25z m-1768 -98 c0 -36 -3 -70 -7 -76 -4 -7 -7
36 -7 95 0 58 3 93 6 76 4 -16 7 -59 8 -95z m1077 71 c-42 -44 -196 -123 -196
-101 0 6 6 10 13 10 23 0 132 58 167 89 44 39 52 40 16 2z m-1156 -129 c-12
-47 -59 -126 -108 -177 -53 -56 -112 -137 -112 -153 0 -8 -3 -13 -6 -9 -13 13
12 53 87 140 91 104 126 166 136 235 4 26 9 39 11 28 2 -10 -1 -39 -8 -64z
m-3572 -25 c29 -56 34 -77 38 -158 4 -82 2 -101 -18 -146 -28 -64 -199 -245
-219 -232 -18 11 -29 2 -22 -17 5 -12 7 -13 14 -3 4 8 10 11 13 8 3 -3 -15
-45 -39 -92 -43 -81 -45 -90 -39 -139 8 -63 42 -116 116 -183 29 -26 52 -52
51 -56 -2 -5 3 -6 11 -3 22 9 114 -114 101 -135 -13 -22 40 -20 112 4 107 36
185 53 219 49 23 -3 25 -2 10 4 -18 8 -16 10 15 21 18 6 69 15 112 18 l77 6 0
-32 c0 -18 -7 -45 -15 -62 -9 -16 -13 -34 -10 -39 3 -6 2 -10 -4 -10 -5 0 -12
4 -16 9 -3 5 -34 13 -70 16 -54 6 -77 3 -145 -19 -44 -14 -91 -33 -105 -42
-14 -9 -25 -13 -25 -9 0 5 -8 1 -17 -8 -27 -24 -239 -122 -318 -147 -113 -36
-224 -80 -319 -126 -48 -24 -83 -37 -77 -30 7 8 23 17 36 20 14 4 25 11 25 16
0 6 6 10 14 10 7 0 20 8 27 17 12 14 12 16 0 8 -14 -8 -13 12 5 85 4 14 9 58
11 98 5 75 -11 136 -60 220 -11 18 -17 35 -14 38 3 3 10 -4 16 -15 13 -23 114
-101 131 -101 15 0 12 10 -15 45 -34 45 -62 156 -57 228 2 31 7 55 10 53 4 -2
7 19 8 48 1 36 10 68 32 111 34 65 68 114 58 83 -3 -10 -1 -18 5 -18 6 0 7 -5
4 -10 -4 -6 -11 -8 -16 -4 -5 3 -9 2 -8 -3 3 -20 -2 -34 -11 -28 -5 3 -10 -1
-10 -9 0 -27 17 -18 41 20 17 27 24 33 31 22 8 -10 9 -10 5 2 -2 8 -10 14 -16
13 -6 -2 -12 4 -12 12 -1 8 -2 19 -3 24 -1 12 126 161 134 156 3 -2 7 6 7 17
1 11 8 28 16 37 8 9 36 51 62 95 41 68 49 90 59 165 6 47 9 107 6 133 -7 59 4
51 48 -35z m3290 -27 c20 -5 64 -11 97 -12 l60 -1 -50 -6 c-68 -8 -171 23
-213 65 -7 8 -18 14 -23 14 -5 0 -9 5 -9 10 0 6 23 -5 51 -25 28 -19 67 -39
87 -45z m1229 74 c-3 -3 -12 -4 -19 -1 -8 3 -5 6 6 6 11 1 17 -2 13 -5z
m-1567 -54 l-8 -35 -1 31 c-1 17 2 34 6 37 11 12 12 3 3 -33z m1399 24 c8 -7
-54 -2 -79 6 -17 6 -9 7 25 3 28 -3 52 -7 54 -9z m44 9 c-7 -2 -19 -2 -25 0
-7 3 -2 5 12 5 14 0 19 -2 13 -5z m50 0 c-7 -2 -19 -2 -25 0 -7 3 -2 5 12 5
14 0 19 -2 13 -5z m-1496 -95 c-3 -8 -6 -5 -6 6 -1 11 2 17 5 13 3 -3 4 -12 1
-19z m9 -53 c1 -8 -2 -15 -6 -15 -5 0 -8 9 -7 20 1 21 10 18 13 -5z m2537 3
c-6 -22 -33 -69 -33 -56 0 9 30 78 34 78 2 0 2 -10 -1 -22z m-1923 -17 c0 -5
-22 -35 -48 -68 -26 -33 -55 -71 -65 -84 l-18 -24 12 25 c7 14 29 45 49 70 20
25 42 55 49 68 12 23 21 29 21 13z m2105 -1 c3 -6 -1 -7 -9 -4 -18 7 -21 14
-7 14 6 0 13 -4 16 -10z m-2718 -77 c-2 -16 -4 -5 -4 22 0 28 2 40 4 28 2 -13
2 -35 0 -50z m2727 45 c-5 -8 -1 -9 12 -4 14 5 16 4 7 -5 -13 -13 -37 -3 -28
12 4 5 8 9 11 9 3 0 2 -5 -2 -12z m-234 -52 c0 -2 -7 -7 -16 -10 -8 -3 -12 -2
-9 4 6 10 25 14 25 6z m-2482 -72 c-3 -14 -5 -12 -10 9 -3 19 -2 25 4 19 6 -6
8 -18 6 -28z m1767 0 c36 -14 65 -30 65 -36 0 -5 -12 -3 -27 6 -90 47 -135 55
-202 36 -19 -5 -37 -8 -39 -5 -7 7 60 23 100 24 21 1 67 -11 103 -25z m-1683
-224 c22 -47 53 -103 67 -125 67 -103 210 -254 316 -332 66 -49 129 -108 280
-262 55 -56 119 -114 141 -129 76 -49 80 -53 24 -25 -40 20 -101 75 -225 199
-93 94 -195 187 -225 207 -71 45 -243 223 -308 319 -63 92 -153 293 -151 337
0 9 9 -11 20 -44 11 -33 38 -98 61 -145z m295 152 c2 -23 1 -24 -7 -7 -11 24
-13 51 -3 41 4 -4 8 -19 10 -34z m1523 -46 c0 -17 -3 -16 -16 9 -8 16 -23 39
-32 50 -9 11 -2 7 16 -9 17 -17 32 -39 32 -50z m480 40 c0 -2 -8 -10 -17 -17
-16 -13 -17 -12 -4 4 13 16 21 21 21 13z m-750 -31 c-26 -32 -375 -224 -386
-213 -2 3 35 24 83 47 106 52 237 126 278 158 35 26 42 29 25 8z m-1158 -104
c29 -23 62 -48 73 -56 18 -15 17 -15 -11 -1 -62 30 -155 129 -154 163 1 4 10
-9 20 -29 11 -20 43 -55 72 -77z m1364 82 c19 -14 42 -40 50 -57 8 -17 9 -22
2 -11 -16 24 -68 75 -77 75 -3 0 -12 -23 -18 -51 -16 -66 -55 -151 -96 -207
-42 -58 -137 -162 -149 -162 -5 0 16 26 47 58 82 84 151 191 175 273 12 39 22
79 23 90 2 24 2 24 43 -8z m80 -38 c4 -14 4 -29 0 -32 -3 -4 -6 3 -6 13 0 11
-5 25 -12 32 -9 9 -9 12 0 12 6 0 14 -11 18 -25z m404 11 c0 -2 -8 -10 -17
-17 -16 -13 -17 -12 -4 4 13 16 21 21 21 13z m-680 -70 c0 -51 -61 -121 -161
-186 -46 -30 -93 -63 -104 -73 -11 -10 -46 -37 -77 -59 -111 -79 -58 -65 101
25 46 26 85 47 87 47 3 0 22 11 44 25 84 53 58 18 -55 -73 -89 -72 -140 -98
-275 -140 -42 -13 -194 -17 -265 -7 -88 13 -138 50 -181 131 -11 21 -10 22 65
27 42 3 87 7 101 10 66 11 146 31 155 37 6 4 25 11 44 15 29 6 77 24 146 55
11 5 66 30 122 54 57 25 133 68 170 95 38 27 71 50 76 50 4 1 7 -14 7 -33z
m-965 4 c3 -6 -1 -7 -9 -4 -18 7 -21 14 -7 14 6 0 13 -4 16 -10z m1585 -24 c0
-2 -8 -10 -17 -17 -16 -13 -17 -12 -4 4 13 16 21 21 21 13z m-1650 -46 c18
-12 2 -12 -25 0 -13 6 -15 9 -5 9 8 0 22 -4 30 -9z m1610 0 c0 -5 -5 -10 -11
-10 -5 0 -7 5 -4 10 3 6 8 10 11 10 2 0 4 -4 4 -10z m-1563 -16 c-3 -3 -12 -4
-19 -1 -8 3 -5 6 6 6 11 1 17 -2 13 -5z m573 -18 c0 -9 -249 -86 -272 -85 -13
0 6 9 42 19 36 10 99 29 140 43 81 27 90 29 90 23z m951 -19 c-10 -9 -11 -8
-5 6 3 10 9 15 12 12 3 -3 0 -11 -7 -18z m-1707 -26 c-2 -3 -12 3 -22 13 -16
17 -16 18 5 5 12 -7 20 -15 17 -18z m56 -11 c13 -9 13 -10 0 -10 -8 0 -22 5
-30 10 -13 9 -13 10 0 10 8 0 22 -5 30 -10z m1630 7 c0 -2 -10 -12 -22 -23
l-23 -19 19 23 c18 21 26 27 26 19z m-1680 -58 c3 -3 14 -11 25 -17 11 -6 14
-12 7 -12 -7 0 -29 16 -50 37 -20 20 -26 28 -12 17 14 -10 27 -22 30 -25z
m118 30 c17 -6 71 -14 119 -18 87 -8 87 -8 23 -9 -61 -2 -173 18 -187 32 -10
9 11 7 45 -5z m282 -17 c0 -5 -7 -9 -15 -9 -8 0 -12 4 -9 9 3 4 9 8 15 8 5 0
9 -4 9 -8z m43 1 c-7 -2 -19 -2 -25 0 -7 3 -2 5 12 5 14 0 19 -2 13 -5z m-86
-9 c-3 -3 -12 -4 -19 -1 -8 3 -5 6 6 6 11 1 17 -2 13 -5z m1178 -114 c-21 -22
-42 -40 -47 -40 -7 0 73 79 82 80 2 0 -14 -18 -35 -40z m-487 -23 c-7 -7 -31
-26 -53 -42 -22 -17 -48 -37 -58 -46 -33 -30 -117 -70 -185 -90 -69 -20 -251
-25 -317 -10 -16 4 31 5 106 3 121 -4 145 -2 210 18 94 28 127 46 219 119 68
54 111 80 78 48z m-678 -163 c20 -7 27 -12 17 -13 -22 -1 -84 27 -93 41 -4 6
4 4 17 -3 13 -8 40 -19 59 -25z m940 -3 c0 -5 -7 -12 -16 -15 -14 -5 -15 -4
-4 9 14 17 20 19 20 6z m-50 -35 c0 -3 -4 -8 -10 -11 -5 -3 -10 -1 -10 4 0 6
5 11 10 11 6 0 10 -2 10 -4z m-848 -81 c31 -15 72 -25 98 -25 28 0 40 -3 32
-9 -20 -12 -94 4 -149 33 -62 33 -50 33 19 1z m-42 -26 c15 -28 5 -23 -15 7
-9 15 -12 23 -6 20 6 -4 16 -16 21 -27z m358 3 c4 -14 -56 -52 -83 -52 -12 1
-4 7 19 15 51 18 66 33 46 46 -12 9 -12 10 -1 7 8 -3 16 -9 19 -16z m-73 -3
c-22 -4 -53 -8 -70 -7 -29 1 -29 1 5 8 19 4 51 7 70 8 l35 0 -40 -9z m-200
-52 c18 -4 18 -5 -1 -6 -12 0 -32 8 -45 20 l-24 21 25 -15 c14 -8 35 -17 45
-20z m150 -7 c-11 -5 -45 -8 -75 -8 l-55 1 60 7 c87 10 92 10 70 0z m-3662
-37 c-7 -2 -19 -2 -25 0 -7 3 -2 5 12 5 14 0 19 -2 13 -5z m44 -9 c-3 -3 -12
-4 -19 -1 -8 3 -5 6 6 6 11 1 17 -2 13 -5z m-172 -33 c-12 -11 -105 -51 -105
-46 0 3 21 16 48 29 48 26 74 33 57 17z m4060 -11 c-3 -5 -12 -10 -18 -10 -7
0 -6 4 3 10 19 12 23 12 15 0z m-4259 -85 c-11 -8 -25 -15 -30 -15 -6 1 0 7
14 15 32 19 40 18 16 0z m5919 -5 c-3 -5 -15 -10 -26 -10 -34 0 -142 -51 -189
-88 -97 -78 -184 -178 -245 -281 -26 -42 -50 -83 -55 -91 -54 -88 -149 -347
-185 -505 -9 -38 -18 -126 -20 -193 -2 -68 -6 -127 -10 -130 -7 -8 1 248 10
293 32 164 142 453 224 590 131 219 316 387 456 415 22 4 41 8 43 9 2 1 0 -3
-3 -9z m-486 -57 c-105 -97 -176 -173 -230 -243 -225 -295 -316 -404 -454
-548 -66 -70 -225 -202 -265 -221 -21 -10 -22 -9 -6 1 162 109 377 331 591
612 50 65 121 155 158 200 67 81 245 256 260 256 4 0 -20 -26 -54 -57z m-4795
35 c-3 -4 -9 -8 -15 -8 -5 0 -9 4 -9 8 0 5 7 9 15 9 8 0 12 -4 9 -9z m-714 -7
c-8 -5 -26 -11 -40 -15 -21 -5 -20 -3 5 9 32 15 60 20 35 6z m5407 3 c-3 -3
-12 -4 -19 -1 -8 3 -5 6 6 6 11 1 17 -2 13 -5z m-100 -20 c-3 -3 -12 -4 -19
-1 -8 3 -5 6 6 6 11 1 17 -2 13 -5z m954 -30 c9 -11 2 -9 -18 6 -18 13 -33 25
-33 27 0 8 38 -17 51 -33z m-6351 12 c0 -2 -7 -7 -16 -10 -8 -3 -12 -2 -9 4 6
10 25 14 25 6z m3440 -4 c0 -4 -36 -13 -81 -20 -44 -7 -97 -20 -117 -29 -189
-82 -255 -124 -362 -232 -77 -77 -161 -183 -192 -243 -90 -169 -158 -292 -158
-285 0 16 133 263 185 342 159 243 399 415 640 459 44 8 81 15 83 15 1 1 2 -3
2 -7z m212 -28 c42 -13 87 -33 100 -44 23 -20 22 -20 -18 0 -54 27 -170 60
-214 61 -19 0 -44 4 -55 9 -42 19 112 -3 187 -26z m1648 16 c-8 -5 -19 -10
-25 -10 -5 0 -3 5 5 10 8 5 20 10 25 10 6 0 3 -5 -5 -10z m-4158 -85 c14 -27
-1 -10 -41 45 l-33 45 32 -35 c17 -19 36 -44 42 -55z m-1215 69 c-3 -3 -12 -4
-19 -1 -8 3 -5 6 6 6 11 1 17 -2 13 -5z m6508 -44 c10 -11 16 -20 13 -20 -3 0
-13 9 -23 20 -10 11 -16 20 -13 20 3 0 13 -9 23 -20z m-7495 -47 c25 -17 68
-40 95 -51 58 -25 198 -54 269 -56 46 -2 52 1 94 44 37 37 39 38 13 7 -49 -59
-73 -116 -79 -184 -4 -53 0 -76 28 -153 31 -85 32 -96 27 -186 -6 -106 14
-203 50 -253 37 -49 52 -89 87 -222 20 -74 47 -165 61 -203 14 -38 23 -71 21
-73 -2 -3 -7 5 -11 17 -7 21 -54 70 -67 70 -23 0 -95 66 -125 114 -61 99 -90
212 -124 486 -13 107 -46 218 -90 294 -17 32 -74 94 -144 160 -112 105 -175
187 -175 230 0 18 1 18 13 4 6 -8 32 -29 57 -45z m1497 31 c-3 -3 -12 -4 -19
-1 -8 3 -5 6 6 6 11 1 17 -2 13 -5z m-47 -11 c-52 -17 -70 -21 -70 -17 0 8 43
23 65 23 13 -1 15 -2 5 -6z m3400 -3 c0 -5 -5 -10 -11 -10 -35 0 -271 -210
-339 -302 -19 -26 -39 -48 -43 -48 -26 -1 138 178 237 259 66 54 144 111 152
111 2 0 4 -4 4 -10z m-4080 -4 c0 -2 -7 -7 -16 -10 -8 -3 -12 -2 -9 4 6 10 25
14 25 6z m1321 -23 c13 -16 12 -17 -3 -4 -10 7 -18 15 -18 17 0 8 8 3 21 -13z
m-746 -2 c-13 -11 -77 -32 -82 -27 -2 2 15 11 39 19 53 19 54 19 43 8z m885
-26 c0 -5 -5 -3 -10 5 -5 8 -10 20 -10 25 0 6 5 3 10 -5 5 -8 10 -19 10 -25z
m5331 18 c13 -16 12 -17 -3 -4 -10 7 -18 15 -18 17 0 8 8 3 21 -13z m-6321
-33 c-8 -5 -19 -10 -25 -10 -5 0 -3 5 5 10 8 5 20 10 25 10 6 0 3 -5 -5 -10z
m4745 0 c-3 -5 -12 -10 -18 -10 -7 0 -6 4 3 10 19 12 23 12 15 0z m-4397 -7
c-10 -2 -28 -2 -40 0 -13 2 -5 4 17 4 22 1 32 -1 23 -4z m-393 -13 c-3 -5 -12
-10 -18 -10 -7 0 -6 4 3 10 19 12 23 12 15 0z m442 4 c-3 -3 -12 -4 -19 -1 -8
3 -5 6 6 6 11 1 17 -2 13 -5z m-167 -14 c-34 -11 -60 -11 -35 0 11 5 29 8 40
8 16 0 15 -2 -5 -8z m-310 -4 c0 -3 -13 -11 -30 -20 -16 -8 -30 -11 -30 -6 0
7 23 18 58 29 1 1 2 -1 2 -3z m240 -16 c-8 -5 -22 -10 -30 -10 -13 0 -13 1 0
10 8 5 22 10 30 10 13 0 13 -1 0 -10z m4437 -6 c-3 -3 -12 -4 -19 -1 -8 3 -5
6 6 6 11 1 17 -2 13 -5z m-4757 -14 c-8 -5 -24 -9 -35 -9 -16 1 -16 2 5 9 35
11 48 11 30 0z m1047 -22 c-3 -7 -5 -2 -5 12 0 14 2 19 5 13 2 -7 2 -19 0 -25z
m-872 -8 c-22 -10 -44 -18 -50 -18 -5 0 8 8 30 19 22 10 45 18 50 18 6 0 -8
-9 -30 -19z m-282 3 c-7 -2 -19 -2 -25 0 -7 3 -2 5 12 5 14 0 19 -2 13 -5z
m4577 -27 c0 -2 -9 -6 -20 -9 -11 -3 -18 -1 -14 4 5 9 34 13 34 5z m-4400 -21
c-14 -8 -32 -14 -40 -14 -8 0 -1 6 15 14 40 18 57 18 25 0z m4347 -27 c-3 -8
-6 -5 -6 6 -1 11 2 17 5 13 3 -3 4 -12 1 -19z m-4412 3 c-6 -5 -23 -12 -40
-15 -28 -6 -28 -5 5 8 43 18 46 18 35 7z m4153 -38 c-10 -2 -28 -2 -40 0 -13
2 -5 4 17 4 22 1 32 -1 23 -4z m997 -2 c-3 -5 -20 -13 -38 -17 -17 -3 -45 -12
-62 -19 -51 -21 -135 -44 -135 -36 0 4 28 15 63 24 34 9 87 25 117 36 65 24
63 24 55 12z m-1218 -18 c-15 -16 -13 -18 36 -46 29 -16 65 -41 80 -55 34 -32
83 -108 91 -142 l6 -25 -13 25 c-49 100 -84 138 -167 186 -73 42 -96 37 -58
-12 l22 -29 -27 24 c-15 14 -28 23 -30 20 -80 -95 -132 -168 -165 -229 -35
-64 -74 -179 -79 -234 -14 -162 109 -285 304 -303 34 -3 60 -9 58 -13 -6 -10
-113 6 -171 26 -70 23 -149 87 -175 140 -35 73 -36 154 -4 249 49 144 154 308
254 396 44 39 70 54 38 22z m1218 -19 c-32 -27 -254 -138 -261 -131 -3 2 33
21 78 41 46 20 110 54 143 76 70 45 82 50 40 14z m-767 -11 c-12 -27 -63 -108
-56 -88 2 6 16 34 31 63 29 55 45 71 25 25z m522 -27 c0 -2 -33 -14 -72 -26
-261 -80 -421 -156 -509 -243 -24 -24 -28 -26 -16 -7 44 64 218 162 392 218
198 64 205 66 205 58z m-3710 -176 c5 0 7 7 4 15 -4 9 0 15 7 15 12 0 12 2 1
9 -10 6 -8 10 8 14 21 5 21 7 5 31 -9 14 -15 31 -13 38 6 16 42 -53 58 -112
24 -83 20 -197 -8 -270 -8 -22 -9 -28 -11 -49 0 -10 -14 -34 -31 -52 -16 -19
-30 -37 -30 -41 0 -4 -18 -13 -39 -19 -60 -18 -110 -65 -142 -133 -16 -34 -29
-68 -29 -76 0 -8 -14 -40 -31 -70 -16 -30 -31 -66 -33 -80 -10 -71 -31 -123
-68 -165 -22 -25 -45 -45 -50 -45 -6 0 -3 9 7 20 10 11 14 20 9 20 -5 0 -3 4
5 9 9 6 6 9 -11 9 -21 0 -24 -5 -23 -30 1 -16 -7 -53 -16 -81 -12 -34 -19 -85
-20 -147 -1 -52 -4 -86 -6 -75 -6 23 -33 64 -33 50 0 -6 7 -30 16 -55 27 -82
24 -76 35 -60 9 12 10 12 5 -3 -3 -10 1 -34 9 -53 21 -50 9 -42 -19 14 -38 75
-96 247 -103 303 -6 49 -5 51 38 95 40 41 61 54 58 37 -3 -19 2 -33 11 -33 5
0 7 7 4 15 -4 8 0 23 7 33 13 15 12 16 -3 3 -25 -19 -22 2 3 25 24 22 63 95
73 139 4 17 23 53 41 80 46 68 114 234 130 320 8 38 14 71 14 73 1 1 1 11 1
22 0 11 27 49 59 85 77 84 88 115 92 255 l3 85 3 -82 c2 -46 8 -83 13 -83z
m2148 128 c-14 -18 -42 -58 -63 -88 -47 -67 -64 -86 -40 -43 26 45 114 163
121 163 4 0 -5 -15 -18 -32z m-2371 16 c-3 -3 -12 -4 -19 -1 -8 3 -5 6 6 6 11
1 17 -2 13 -5z m47 -13 c4 -5 -3 -7 -14 -4 -23 6 -26 13 -6 13 8 0 17 -4 20
-9z m3035 -103 c20 -20 52 -56 71 -80 19 -24 -15 8 -76 70 -60 62 -114 109
-119 105 -4 -4 -5 -2 0 5 7 14 38 -10 124 -100z m248 105 c-4 -3 -2 -12 4 -20
7 -8 8 -13 1 -13 -12 0 -23 26 -15 34 4 3 9 6 11 6 3 0 2 -3 -1 -7z m563 -62
c-8 -5 -44 -19 -80 -31 -58 -19 -133 -48 -399 -152 -41 -16 -76 -27 -78 -24
-2 2 44 23 104 46 59 23 158 61 218 85 61 23 128 48 150 55 22 7 49 16 60 21
27 10 44 10 25 0z m-3643 -7 c-3 -3 -12 -4 -19 -1 -8 3 -5 6 6 6 11 1 17 -2
13 -5z m-612 -22 c-3 -3 -11 0 -18 7 -9 10 -8 11 6 5 10 -3 15 -9 12 -12z
m-159 -4 c-23 -13 -118 -39 -124 -33 -2 2 16 9 39 15 24 6 53 15 64 20 28 12
44 12 21 -2z m-137 -42 c-2 -1 -19 -8 -36 -14 -37 -12 -45 -6 -10 8 22 9 54
13 46 6z m-99 -41 c0 -6 -73 -25 -78 -20 -2 2 11 8 29 14 41 11 49 12 49 6z
m3944 -11 c3 -8 2 -12 -4 -9 -6 3 -10 10 -10 16 0 14 7 11 14 -7z m-4199 -32
c-3 -3 -11 0 -18 7 -9 10 -8 11 6 5 10 -3 15 -9 12 -12z m3237 -4 c-7 -7 -12
-8 -12 -2 0 14 12 26 19 19 2 -3 -1 -11 -7 -17z m3505 -30 c-2 -13 -4 -5 -4
17 -1 22 1 32 4 23 2 -10 2 -28 0 -40z m-6620 36 c-3 -3 -12 -4 -19 -1 -8 3
-5 6 6 6 11 1 17 -2 13 -5z m3097 -36 c-28 -47 -85 -126 -104 -143 -13 -11 -3
7 22 40 25 33 53 72 63 88 17 26 33 39 19 15z m-171 -66 c-10 -10 -20 -17 -22
-16 -6 5 20 34 30 34 5 0 1 -8 -8 -18z m47 -29 c0 -25 -2 -44 -4 -42 -8 10
-13 89 -5 89 5 0 9 -21 9 -47z m-110 -72 c0 -5 -9 -19 -20 -32 l-20 -24 17 32
c19 34 23 39 23 24z m-2352 -68 c-10 -2 -28 -2 -40 0 -13 2 -5 4 17 4 22 1 32
-1 23 -4z m-78 -7 c0 -2 -13 -9 -30 -15 -35 -12 -41 -5 -7 9 25 10 37 12 37 6z
m146 -12 c19 -15 19 -15 -1 -6 -11 5 -27 12 -35 15 -13 5 -13 6 1 6 8 1 24 -6
35 -15z m-569 -10 c-3 -3 -12 -4 -19 -1 -8 3 -5 6 6 6 11 1 17 -2 13 -5z
m4503 1 c0 -6 -136 -95 -145 -95 -4 0 -18 -9 -32 -20 -29 -23 -180 -83 -196
-77 -6 2 21 13 59 26 67 22 157 70 259 137 55 36 55 36 55 29z m-4160 -12 c-8
-3 -32 -14 -52 -25 -21 -10 -38 -16 -38 -13 0 8 74 44 90 44 13 -1 13 -1 0 -6z
m2404 -38 c-14 -19 -29 -35 -31 -35 -5 0 7 18 36 53 26 31 23 18 -5 -18z
m-2803 7 c-7 -2 -18 1 -23 6 -8 8 -4 9 13 5 13 -4 18 -8 10 -11z m82 -19 c-7
-2 -21 -2 -30 0 -10 3 -4 5 12 5 17 0 24 -2 18 -5z m164 1 c-3 -3 -12 -4 -19
-1 -8 3 -5 6 6 6 11 1 17 -2 13 -5z m6410 -61 c-3 -10 -5 -2 -5 17 0 19 2 27
5 18 2 -10 2 -26 0 -35z m-3887 23 c0 -2 -8 -10 -17 -17 -16 -13 -17 -12 -4 4
13 16 21 21 21 13z m3084 -22 c3 -8 2 -12 -4 -9 -6 3 -10 10 -10 16 0 14 7 11
14 -7z m-154 1 c0 -2 -10 -9 -22 -15 -22 -11 -22 -10 -4 4 21 17 26 19 26 11z
m-2960 -19 c0 -2 -7 -9 -15 -16 -13 -11 -14 -10 -9 4 5 14 24 23 24 12z m3144
-12 c3 -8 2 -12 -4 -9 -6 3 -10 10 -10 16 0 14 7 11 14 -7z m-3203 -57 l-24
-22 19 27 c10 14 21 24 23 22 3 -3 -6 -15 -18 -27z m-491 9 c0 -2 -8 -10 -17
-17 -16 -13 -17 -12 -4 4 13 16 21 21 21 13z m1935 -11 c-27 -7 -70 -13 -95
-13 -38 0 -33 2 30 13 98 16 128 16 65 0z m1819 -11 c5 -14 4 -15 -9 -4 -17
14 -19 20 -6 20 5 0 12 -7 15 -16z m-600 -211 c14 -40 21 -73 17 -73 -13 0
-53 155 -57 220 l-3 65 10 -70 c5 -38 20 -103 33 -142z m-2694 173 c0 -2 -8
-10 -17 -17 -16 -13 -17 -12 -4 4 13 16 21 21 21 13z m-550 -21 c0 -2 -30 -25
-67 -49 -38 -25 -81 -55 -98 -67 l-30 -21 30 27 c27 23 156 115 162 115 2 0 3
-2 3 -5z m3430 -15 c-6 -11 -12 -20 -14 -20 -2 0 -2 9 1 20 3 11 9 20 15 20 5
0 4 -9 -2 -20z m1130 10 c0 -5 -2 -10 -4 -10 -3 0 -8 5 -11 10 -3 6 -1 10 4
10 6 0 11 -4 11 -10z m-1162 -65 c-6 -14 -13 -23 -15 -21 -5 5 15 46 22 46 3
0 -1 -11 -7 -25z m496 -41 c3 -8 2 -12 -4 -9 -6 3 -10 10 -10 16 0 14 7 11 14
-7z m-523 -17 c-10 -9 -11 -8 -5 6 3 10 9 15 12 12 3 -3 0 -11 -7 -18z m-5281
-8 c17 -9 -49 -1 -95 12 -22 6 -15 7 25 3 30 -4 62 -10 70 -15z m1685 -35
c-91 -60 -298 -291 -487 -544 -101 -135 -177 -229 -157 -195 43 71 364 477
439 555 14 14 39 42 55 61 51 58 158 149 174 149 9 0 -2 -12 -24 -26z m3565
-14 c-6 -11 -13 -20 -16 -20 -2 0 0 9 6 20 6 11 13 20 16 20 2 0 0 -9 -6 -20z
m547 -52 c-2 -13 -4 -5 -4 17 -1 22 1 32 4 23 2 -10 2 -28 0 -40z m-597 -2 c0
-11 -19 -15 -25 -6 -3 5 1 10 9 10 9 0 16 -2 16 -4z m-2911 -73 c-52 -92 -69
-119 -69 -110 0 14 89 167 97 167 2 0 -10 -26 -28 -57z m3488 -75 c-3 -8 -6
-5 -6 6 -1 11 2 17 5 13 3 -3 4 -12 1 -19z m837 -24 c3 -8 2 -12 -4 -9 -6 3
-10 10 -10 16 0 14 7 11 14 -7z m-4405 -63 c-6 -18 -13 -30 -15 -28 -2 2 1 18
7 36 6 18 13 30 15 28 2 -2 -1 -18 -7 -36z m-40 -137 c-11 -49 -24 -93 -28
-97 -4 -4 3 38 17 93 13 56 26 99 28 97 3 -2 -5 -44 -17 -93z m3598 4 c-2 -13
-4 -5 -4 17 -1 22 1 32 4 23 2 -10 2 -28 0 -40z m10 -70 c-3 -8 -6 -5 -6 6 -1
11 2 17 5 13 3 -3 4 -12 1 -19z m7 -133 c4 -34 3 -43 -3 -30 -9 19 -15 93 -7
84 2 -2 6 -26 10 -54z m-6268 -21 c7 -64 -3 -54 -11 11 -4 28 -4 47 0 44 3 -4
9 -29 11 -55z m7217 -34 c3 -11 1 -20 -4 -20 -5 0 -9 9 -9 20 0 11 2 20 4 20
2 0 6 -9 9 -20z m-4713 6 c0 -2 -8 -10 -17 -17 -16 -13 -17 -12 -4 4 13 16 21
21 21 13z m3820 -176 c43 -150 49 -202 10 -78 -34 107 -66 237 -56 227 3 -3
24 -70 46 -149z m-3869 122 c-5 -9 -19 -26 -32 -37 -19 -16 -18 -13 5 18 30
39 43 49 27 19z m-2438 -12 c3 -11 1 -18 -4 -14 -5 3 -9 12 -9 20 0 20 7 17
13 -6z m1458 -55 c-22 -24 -41 -49 -41 -55 0 -5 14 -17 31 -25 50 -26 152
-135 186 -200 17 -33 39 -85 49 -115 10 -30 22 -58 27 -61 5 -3 2 -9 -6 -12
-11 -4 -16 5 -21 36 -11 64 -73 185 -125 240 -25 28 -72 69 -104 92 l-57 42
46 52 c25 28 48 51 51 51 3 0 -13 -20 -36 -45z m-1454 -12 c-3 -10 -5 -4 -5
12 0 17 2 24 5 18 2 -7 2 -21 0 -30z m2373 14 c0 -2 -8 -11 -18 -20 -15 -14
-19 -15 -19 -2 0 8 4 12 8 9 4 -2 10 0 14 6 6 10 15 14 15 7z m-50 -50 c0 -2
-19 -21 -42 -42 l-43 -40 40 43 c36 39 45 47 45 39z m4887 -19 c-3 -8 -6 -5
-6 6 -1 11 2 17 5 13 3 -3 4 -12 1 -19z m-6733 -86 c3 -5 -1 -9 -9 -9 -8 0
-12 4 -9 9 3 4 7 8 9 8 2 0 6 -4 9 -8z m6743 -24 c-3 -7 -5 -2 -5 12 0 14 2
19 5 13 2 -7 2 -19 0 -25z m-5037 -2 c0 -3 -15 -14 -32 -26 l-33 -22 30 26
c31 27 35 29 35 22z m5037 -38 c-3 -8 -6 -5 -6 6 -1 11 2 17 5 13 3 -3 4 -12
1 -19z m-837 -84 c16 -43 27 -80 25 -82 -3 -3 -8 4 -11 14 -4 10 -18 46 -30
78 -23 58 -30 85 -18 74 3 -3 18 -41 34 -84z m-4280 61 c0 -2 -20 -18 -45 -35
-25 -17 -45 -29 -45 -26 0 4 80 64 88 66 1 0 2 -2 2 -5z m-220 -145 c-8 -5
-19 -10 -25 -10 -5 0 -3 5 5 10 8 5 20 10 25 10 6 0 3 -5 -5 -10z m4569 -94
c12 -32 42 -99 67 -149 25 -49 43 -92 40 -94 -6 -6 -83 152 -125 256 -17 41
-24 68 -17 60 8 -8 23 -41 35 -73z m-4849 23 c12 -23 20 -43 17 -45 -3 -3 -47
72 -47 82 0 14 12 -1 30 -37z m5627 19 c-3 -8 -6 -5 -6 6 -1 11 2 17 5 13 3
-3 4 -12 1 -19z m-5912 -166 c-3 -3 -11 0 -18 7 -9 10 -8 11 6 5 10 -3 15 -9
12 -12z m44 -43 c25 1 43 0 41 -2 -3 -3 -45 -8 -95 -10 -83 -5 -87 -5 -50 7
22 7 44 10 49 8 6 -3 30 -4 55 -3z m-174 -29 c-11 -5 -29 -8 -40 -8 -16 0 -15
2 5 8 34 11 60 11 35 0z m5395 -95 c0 -5 -5 -3 -10 5 -5 8 -10 20 -10 25 0 6
5 3 10 -5 5 -8 10 -19 10 -25z m704 -51 c3 -8 2 -12 -4 -9 -6 3 -10 10 -10 16
0 14 7 11 14 -7z m-634 -54 c6 -11 8 -20 6 -20 -3 0 -10 9 -16 20 -6 11 -8 20
-6 20 3 0 10 -9 16 -20z m670 -35 c0 -5 -5 -3 -10 5 -5 8 -10 20 -10 25 0 6 5
3 10 -5 5 -8 10 -19 10 -25z m-513 -21 c-3 -3 -12 -4 -19 -1 -8 3 -5 6 6 6 11
1 17 -2 13 -5z m-57 -8 c0 -2 -15 -6 -34 -8 -19 -2 -32 0 -30 4 5 8 64 12 64
4z m590 -31 c0 -5 -5 -3 -10 5 -5 8 -10 20 -10 25 0 6 5 3 10 -5 5 -8 10 -19
10 -25z m-8113 -68 c-19 -64 -30 -142 -31 -225 -1 -69 12 -94 39 -72 22 19 31
4 15 -26 -17 -30 -43 -46 -63 -38 -59 22 -43 208 35 402 19 48 23 19 5 -41z
m7583 49 c-58 -21 -85 -29 -78 -21 9 10 80 34 98 34 8 0 -1 -6 -20 -13z m542
-31 c3 -13 1 -22 -3 -19 -9 5 -13 44 -5 44 2 0 6 -11 8 -25z m-632 10 c0 -3
-33 -21 -73 -39 -167 -76 -265 -160 -449 -381 -133 -161 -277 -287 -395 -344
-48 -24 -90 -45 -92 -47 -1 -1 10 -20 27 -41 33 -43 67 -125 59 -145 -3 -8 -6
-5 -6 7 -2 36 -58 141 -87 162 l-28 20 25 8 c48 15 165 78 219 118 58 43 207
187 231 223 35 52 230 259 284 302 71 56 94 70 200 122 90 44 85 42 85 35z
m-5187 -49 c15 -10 27 -24 27 -31 0 -7 3 -20 6 -29 4 -9 1 -16 -6 -16 -6 0
-14 9 -17 20 -3 11 -20 25 -39 32 -19 7 -34 15 -34 19 0 4 -9 11 -20 14 -11 3
-20 10 -20 14 0 13 73 -4 103 -23z m1087 -50 c14 -37 3 -57 -52 -101 -28 -22
-63 -50 -79 -63 -16 -13 -29 -19 -29 -14 0 10 80 90 115 116 16 12 17 17 8 27
-10 10 -20 4 -49 -26 l-36 -39 26 53 c23 45 49 68 79 70 4 1 12 -10 17 -23z
m2123 -143 c-7 -2 -19 -2 -25 0 -7 3 -2 5 12 5 14 0 19 -2 13 -5z m-124 -66
c-2 -1 -13 -9 -24 -17 -19 -14 -19 -14 -6 3 7 9 18 17 24 17 6 0 8 -1 6 -3z
m-5735 -192 c-7 -16 -24 -21 -24 -6 0 8 7 13 27 20 1 1 0 -6 -3 -14z m-14 -29
c0 -2 -15 -44 -34 -92 -58 -151 -56 -253 4 -199 16 15 18 14 23 -10 5 -30 -24
-65 -55 -65 -25 0 -68 47 -68 74 0 34 30 141 41 144 5 2 7 8 3 13 -7 12 63
139 76 139 6 0 10 -2 10 -4z m8320 -149 c0 -2 -10 -12 -22 -23 l-23 -19 19 23
c18 21 26 27 26 19z m-6430 -21 c141 -32 281 -102 391 -197 108 -93 151 -265
95 -385 -60 -129 -272 -234 -558 -274 -117 -17 -396 -6 -503 20 -49 12 -101
24 -115 26 -82 15 -228 83 -340 159 -117 80 -227 129 -310 141 -87 11 -130 36
-130 76 0 29 35 46 135 64 35 6 133 34 155 44 67 30 152 77 250 136 63 39 138
79 165 88 28 10 59 22 70 26 70 29 154 52 240 67 17 3 50 9 75 14 46 8 336 5
380 -5z m2388 -91 c3 -3 -42 -3 -100 -1 l-106 5 -36 -52 c-20 -29 -43 -62 -52
-74 -15 -20 -14 -25 9 -65 37 -63 67 -160 67 -218 0 -46 2 -50 24 -50 14 0 28
-4 31 -10 3 -5 42 -21 87 -35 75 -24 123 -44 106 -45 -10 0 -139 43 -203 68
l-50 20 -7 70 c-9 89 -56 208 -92 234 -5 3 5 24 25 46 19 22 46 59 61 81 l28
41 102 -5 c55 -3 104 -7 106 -10z m-828 -20 c74 -9 226 -60 305 -102 70 -37
159 -126 183 -183 24 -58 19 -150 -11 -213 -35 -71 -86 -100 -242 -141 -27 -8
-57 -14 -65 -14 -8 0 -53 -8 -100 -17 -62 -12 -147 -18 -315 -19 -243 -3 -372
4 -495 29 -41 8 -89 17 -107 20 -38 6 -74 19 -130 47 -33 17 -40 24 -32 34 6
8 13 30 15 51 2 21 7 58 10 83 8 77 4 163 -10 218 l-14 52 31 16 c117 61 340
120 545 144 74 8 346 5 432 -5z m870 5 c0 -5 -4 -10 -9 -10 -6 0 -13 5 -16 10
-3 6 1 10 9 10 9 0 16 -4 16 -10z m90 -5 c74 -9 324 -56 330 -62 5 -6 -11 -4
-175 26 -60 11 -136 23 -168 26 -31 4 -60 12 -63 17 -4 6 1 8 12 4 11 -3 39
-8 64 -11z m3770 12 c0 -2 -10 -12 -22 -23 l-23 -19 19 23 c18 21 26 27 26 19z
m-3305 -93 c22 -2 54 -9 70 -14 28 -9 27 -9 -10 -5 -100 13 -122 16 -155 25
-33 9 -33 9 10 4 24 -3 62 -7 85 -10z m135 -28 c0 -11 -19 -15 -25 -6 -3 5 1
10 9 10 9 0 16 -2 16 -4z m-32 -43 c-9 -10 -27 -41 -41 -68 -14 -28 -39 -64
-55 -80 -38 -39 -76 -100 -96 -156 -8 -24 -15 -35 -15 -24 -1 35 37 105 99
181 33 42 60 80 60 86 0 13 48 78 57 78 3 0 -1 -8 -9 -17z m822 -37 c0 -2 -8
-10 -17 -17 -16 -13 -17 -12 -4 4 13 16 21 21 21 13z m2065 -6 c-3 -5 -12 -10
-18 -10 -7 0 -6 4 3 10 19 12 23 12 15 0z m-925 -25 c0 -8 -2 -15 -4 -15 -2 0
-6 7 -10 15 -3 8 -1 15 4 15 6 0 10 -7 10 -15z m-1170 -8 c0 -2 -10 -12 -22
-23 l-23 -19 19 23 c18 21 26 27 26 19z m1259 -176 c43 -42 47 -47 16 -24 -60
46 -82 74 -94 118 -17 63 -11 76 7 15 12 -43 28 -67 71 -109z m-2474 109 c12
-20 24 -70 15 -65 -5 3 -11 18 -15 35 -3 16 -14 31 -23 33 -16 4 -16 5 0 6 9
0 20 -4 23 -9z m1145 -20 c-12 -16 -24 -30 -26 -30 -3 0 4 14 16 30 12 17 24
30 26 30 3 0 -4 -13 -16 -30z m1940 16 c0 -2 -7 -7 -16 -10 -8 -3 -12 -2 -9 4
6 10 25 14 25 6z m-3139 -25 c-6 -10 -12 -33 -13 -50 -1 -17 -6 -31 -10 -31
-4 0 -5 15 -1 33 6 34 20 67 29 67 2 0 0 -8 -5 -19z m3084 -1 c-27 -12 -43
-12 -25 0 8 5 22 9 30 9 10 0 8 -3 -5 -9z m-365 -34 c0 -2 -8 -10 -17 -17 -16
-13 -17 -12 -4 4 13 16 21 21 21 13z m255 -6 c-27 -12 -43 -12 -25 0 8 5 22 9
30 9 10 0 8 -3 -5 -9z m-8050 -19 c-3 -11 -8 -28 -10 -38 -2 -10 -9 -36 -14
-58 -15 -60 -14 -95 4 -95 9 0 18 7 21 15 8 19 24 9 24 -14 0 -23 -20 -41 -55
-47 -22 -4 -28 1 -39 28 -19 44 -11 91 26 166 29 58 57 86 43 43z m5145 -33
c-6 -41 -35 -108 -45 -108 -3 0 4 18 15 40 11 21 20 52 20 68 0 24 7 42 15 42
1 0 -1 -19 -5 -42z m1048 2 c-7 -10 -14 -17 -17 -15 -4 4 18 35 25 35 2 0 -1
-9 -8 -20z m-1119 -74 c6 -22 6 -35 1 -30 -10 10 -27 83 -17 74 2 -3 10 -23
16 -44z m1081 10 c0 -2 -8 -10 -17 -17 -16 -13 -17 -12 -4 4 13 16 21 21 21
13z m650 -20 c0 -2 -8 -10 -17 -17 -16 -13 -17 -12 -4 4 13 16 21 21 21 13z
m-1463 -70 c-4 -10 -23 -11 -79 -4 -108 12 -115 17 -15 11 l87 -6 1 34 c2 32
2 32 6 6 3 -16 2 -34 0 -41z m-387 34 c13 -9 13 -10 0 -9 -8 1 -26 5 -40 9
l-25 8 25 1 c14 0 32 -4 40 -9z m94 -8 c2 -4 -13 -6 -35 -4 -21 2 -39 6 -39 8
0 7 69 4 74 -4z m94 -9 c-10 -2 -28 -2 -40 0 -13 2 -5 4 17 4 22 1 32 -1 23
-4z m1542 -107 c0 -2 -8 -10 -17 -17 -16 -13 -17 -12 -4 4 13 16 21 21 21 13z
m-40 -50 c0 -2 -8 -10 -17 -17 -16 -13 -17 -12 -4 4 13 16 21 21 21 13z m566
-38 c-9 -12 -16 -19 -16 -15 0 11 24 47 28 42 2 -2 -3 -14 -12 -27z m-146
-221 c0 -2 -10 -12 -22 -23 l-23 -19 19 23 c18 21 26 27 26 19z m-50 -66 c-5
-11 -15 -23 -21 -27 -6 -3 -3 5 6 20 20 30 30 35 15 7z m-40 -55 c0 -2 -8 -10
-17 -17 -16 -13 -17 -12 -4 4 13 16 21 21 21 13z"/>
<path d="M1206 13964 c-24 -25 -26 -33 -27 -128 -2 -138 -2 -145 0 -196 1 -36
2 -126 2 -315 0 -5 0 -236 -1 -513 -1 -384 1 -506 11 -518 17 -21 230 -13 265
11 28 18 26 -9 28 385 1 140 5 261 10 268 5 9 30 13 79 12 214 -4 274 0 298
19 21 17 23 27 25 134 3 167 17 157 -219 157 l-192 0 0 200 0 200 125 0 c346
1 398 4 417 23 15 14 19 39 21 136 3 111 2 120 -17 133 -17 12 -89 15 -409 16
l-389 2 -27 -26z"/>
<path d="M2180 13974 c-17 -7 -30 -21 -31 -31 0 -10 -2 -36 -5 -58 -2 -22 -5
-385 -6 -807 -2 -597 0 -770 9 -779 17 -17 273 -33 287 -19 7 7 12 155 13 448
1 240 3 613 4 827 2 215 0 395 -4 401 -17 27 -213 40 -267 18z"/>
<path d="M2940 13983 c-87 -14 -185 -62 -237 -116 -138 -144 -168 -371 -73
-551 51 -98 141 -185 300 -290 181 -121 243 -185 259 -269 11 -59 -11 -123
-53 -159 -25 -22 -41 -27 -85 -28 -76 0 -129 33 -175 108 -65 107 -76 109
-177 41 -31 -22 -61 -39 -66 -39 -6 0 -23 -10 -38 -22 -33 -26 -31 -53 13
-148 48 -104 139 -181 270 -230 57 -20 74 -22 165 -17 212 13 340 90 416 252
81 171 43 393 -93 540 -31 33 -56 63 -56 68 0 4 -5 7 -11 7 -6 0 -19 10 -29
23 -10 12 -78 62 -151 111 -149 99 -165 114 -209 182 -38 61 -41 135 -7 175
57 66 126 80 204 43 56 -27 88 -61 134 -141 20 -36 36 -53 49 -53 11 0 61 21
111 47 95 51 112 73 91 116 -6 12 -23 54 -38 92 -38 100 -81 163 -128 187
-101 52 -169 70 -266 73 -52 1 -106 0 -120 -2z"/>
<path d="M3556 13978 c-20 -11 -28 -56 -30 -168 -1 -73 2 -94 15 -106 16 -14
104 -22 254 -23 l60 -1 -2 -168 c-8 -788 -6 -1201 6 -1216 11 -14 35 -16 144
-14 78 2 136 7 145 14 14 10 16 86 19 695 2 376 5 684 6 686 2 1 67 3 145 5
110 3 145 7 152 17 4 8 8 71 7 140 -2 122 -3 126 -26 138 -30 14 -869 16 -895
1z"/>
<path d="M4640 13977 c-62 -16 -64 -28 -67 -366 -1 -168 -3 -409 -4 -534 -2
-254 -1 -257 62 -259 126 -4 143 8 154 108 4 38 9 78 11 89 2 11 6 45 10 75 3
30 7 66 9 79 2 13 7 45 11 70 3 25 8 57 10 71 2 14 6 50 10 80 3 30 12 100 21
155 8 55 16 120 18 145 2 25 8 74 14 110 13 80 14 150 1 170 -7 11 -33 15
-119 15 -61 0 -124 -3 -141 -8z"/>
<path d="M4600 12656 c-5 -5 -10 -7 -10 -2 0 4 -17 -2 -38 -14 -47 -27 -74
-84 -75 -160 -2 -101 42 -166 127 -190 67 -18 107 -7 154 44 31 34 41 54 47
94 13 94 -11 174 -62 208 -33 21 -128 35 -143 20z"/>
<path d="M2430 10980 c-8 -5 -13 -10 -10 -11 3 0 13 -2 22 -4 11 -2 15 2 11
11 -6 16 -4 16 -23 4z"/>
<path d="M2410 10941 c0 -6 4 -13 10 -16 6 -3 7 1 4 9 -7 18 -14 21 -14 7z"/>
<path d="M2457 10900 c-3 -11 -1 -20 4 -20 5 0 9 9 9 20 0 11 -2 20 -4 20 -2
0 -6 -9 -9 -20z"/>
<path d="M2413 10896 c1 -11 9 -21 17 -23 10 -3 11 -2 4 4 -6 4 -14 15 -17 23
-5 11 -6 9 -4 -4z"/>
<path d="M2446 10854 c-19 -19 -21 -31 -3 -15 8 6 17 8 20 4 4 -3 7 1 7 10 0
21 -4 21 -24 1z"/>
<path d="M2405 10830 c3 -5 8 -10 11 -10 2 0 4 5 4 10 0 6 -5 10 -11 10 -5 0
-7 -4 -4 -10z"/>
<path d="M2401 10767 c-9 -11 -7 -17 6 -28 16 -13 17 -12 5 3 -10 13 -10 17 0
21 7 2 10 7 7 11 -3 4 -11 0 -18 -7z"/>
<path d="M2345 10727 c-12 -9 -14 -16 -7 -21 6 -3 16 3 22 14 13 24 10 25 -15
7z"/>
<path d="M2383 10705 c0 -15 3 -22 7 -15 5 8 11 7 23 -4 8 -9 17 -16 19 -16 9
0 5 40 -4 46 -7 4 -8 2 -4 -4 4 -7 1 -12 -8 -12 -8 0 -19 7 -24 17 -8 13 -9
11 -9 -12z"/>
<path d="M2315 10670 c3 -5 11 -10 16 -10 6 0 7 5 4 10 -3 6 -11 10 -16 10 -6
0 -7 -4 -4 -10z"/>
<path d="M2368 10663 c7 -3 16 -2 19 1 4 3 -2 6 -13 5 -11 0 -14 -3 -6 -6z"/>
<path d="M2355 10640 c-3 -5 -1 -10 4 -10 6 0 11 5 11 10 0 6 -2 10 -4 10 -3
0 -8 -4 -11 -10z"/>
<path d="M2385 10619 c-4 -6 -5 -12 -2 -15 2 -3 7 2 10 11 7 17 1 20 -8 4z"/>
<path d="M2215 10540 c-3 -5 2 -10 12 -11 10 0 13 -3 6 -6 -15 -6 -17 -33 -3
-33 6 0 9 6 8 13 -2 6 3 11 10 9 10 -2 10 2 2 18 -12 22 -25 26 -35 10z"/>
<path d="M2275 10520 c-3 -5 -1 -10 4 -10 6 0 11 5 11 10 0 6 -2 10 -4 10 -3
0 -8 -4 -11 -10z"/>
<path d="M2185 10500 c3 -5 8 -10 11 -10 2 0 4 5 4 10 0 6 -5 10 -11 10 -5 0
-7 -4 -4 -10z"/>
<path d="M2155 10470 c-3 -5 -1 -10 4 -10 6 0 11 5 11 10 0 6 -2 10 -4 10 -3
0 -8 -4 -11 -10z"/>
<path d="M2195 10450 c-3 -5 -11 -8 -16 -5 -5 4 -9 1 -9 -5 0 -7 8 -9 20 -5
14 5 20 2 20 -10 0 -9 -4 -14 -8 -11 -5 3 -16 -8 -25 -24 -17 -28 -17 -29 1
-27 11 0 19 8 18 17 -1 8 5 14 14 12 8 -2 12 0 8 4 -4 4 -4 12 1 18 6 7 4 18
-4 29 -8 12 -15 14 -20 7z"/>
<path d="M2160 10409 c0 -5 5 -7 10 -4 6 3 10 8 10 11 0 2 -4 4 -10 4 -5 0
-10 -5 -10 -11z"/>
<path d="M2127 10363 c-10 -10 -8 -23 4 -23 5 0 8 4 5 9 -4 5 0 12 6 14 7 3 8
6 2 6 -6 1 -14 -2 -17 -6z"/>
<path d="M2060 10310 c-8 -5 -10 -10 -5 -10 6 0 17 5 25 10 8 5 11 10 5 10 -5
0 -17 -5 -25 -10z"/>
<path d="M2131 10308 c9 -7 18 -20 22 -28 4 -12 6 -12 6 2 1 10 -9 22 -21 28
-20 9 -21 9 -7 -2z"/>
<path d="M2105 10249 c-8 -12 24 -51 36 -43 5 3 9 0 9 -5 0 -6 5 -11 10 -11 6
0 10 10 10 23 0 16 -3 18 -9 9 -9 -15 -19 -14 -38 2 -9 8 -8 14 5 24 15 11 15
12 0 12 -9 0 -20 -5 -23 -11z"/>
<path d="M2030 10240 c0 -5 5 -10 11 -10 5 0 7 5 4 10 -3 6 -8 10 -11 10 -2 0
-4 -4 -4 -10z"/>
<path d="M2060 10220 c0 -5 5 -10 11 -10 5 0 7 5 4 10 -3 6 -8 10 -11 10 -2 0
-4 -4 -4 -10z"/>
<path d="M2077 10183 c-12 -12 -7 -41 8 -47 8 -3 15 -1 15 4 0 6 -5 10 -11 10
-6 0 -9 9 -6 20 5 21 4 24 -6 13z"/>
<path d="M2137 10160 c-3 -11 -1 -20 5 -20 5 0 6 -4 3 -10 -3 -5 1 -10 9 -10
9 0 16 -5 16 -11 0 -5 -4 -8 -9 -5 -5 3 -15 -2 -22 -12 -13 -15 -12 -16 4 -3
15 12 17 11 17 -5 0 -15 3 -14 13 6 12 22 11 27 -6 42 -10 9 -17 22 -15 29 3
8 9 6 21 -5 9 -10 17 -14 17 -9 0 13 -22 33 -36 33 -6 0 -14 -9 -17 -20z"/>
<path d="M2197 10103 c-4 -3 -7 -15 -7 -26 0 -25 9 -17 15 12 4 22 2 25 -8 14z"/>
<path d="M2017 10087 c-3 -9 1 -18 10 -21 22 -9 25 -3 10 19 -12 15 -15 16
-20 2z"/>
<path d="M2063 10050 c-2 -39 8 -52 23 -28 4 7 3 8 -4 4 -7 -4 -12 -1 -12 9 0
9 5 13 10 10 14 -9 12 8 -2 28 -11 15 -13 12 -15 -23z"/>
<path d="M2095 10081 c-3 -5 0 -13 6 -16 5 -4 8 -14 4 -24 -5 -12 -4 -13 6 -4
9 9 9 15 0 27 -9 11 -9 15 1 19 9 4 9 6 1 6 -6 1 -14 -3 -18 -8z"/>
<path d="M2226 10059 c3 -5 -9 -9 -25 -9 -17 0 -31 -4 -31 -10 0 -5 -8 -7 -17
-4 -15 5 -16 4 -3 -5 9 -6 18 -7 24 -1 13 13 66 13 66 0 0 -5 7 -7 15 -4 21 9
18 17 -10 31 -14 6 -23 7 -19 2z"/>
<path d="M2014 10048 c-4 -6 -3 -8 4 -4 5 3 12 1 14 -6 3 -8 6 -9 11 -1 4 6 0
13 -8 17 -8 3 -17 0 -21 -6z"/>
<path d="M2203 10023 c-28 -6 -53 -33 -29 -33 9 0 16 4 16 10 0 5 6 7 14 4 7
-3 16 2 19 10 4 9 5 15 4 15 -1 -1 -12 -4 -24 -6z"/>
<path d="M2275 10021 c-3 -5 -1 -12 5 -16 5 -3 10 1 10 9 0 18 -6 21 -15 7z"/>
<path d="M2023 9998 c-2 -18 0 -20 7 -8 12 18 13 30 2 30 -4 0 -9 -10 -9 -22z"/>
<path d="M2136 10011 c-4 -7 -5 -15 -2 -18 9 -9 19 4 14 18 -4 11 -6 11 -12 0z"/>
<path d="M2230 10004 c0 -6 7 -17 15 -24 8 -7 12 -17 8 -23 -3 -6 -1 -7 5 -3
6 4 9 14 6 24 -5 16 -5 16 9 0 8 -10 17 -15 20 -12 3 3 12 -3 19 -15 7 -12 17
-21 22 -21 4 0 3 7 -4 15 -6 8 -9 19 -5 25 4 6 -4 10 -19 10 -14 0 -28 5 -31
10 -4 6 -11 7 -17 4 -6 -4 -14 0 -19 7 -5 8 -9 9 -9 3z"/>
<path d="M2054 9985 c1 -8 6 -18 11 -22 4 -4 5 -3 2 4 -4 6 -2 13 5 15 8 3 6
6 -4 10 -10 4 -15 2 -14 -7z"/>
<path d="M2100 9990 c-9 -6 -10 -10 -3 -10 6 0 15 5 18 10 8 12 4 12 -15 0z"/>
<path d="M2147 9966 c-4 -9 -3 -15 2 -11 5 3 11 -2 13 -10 2 -12 6 -11 16 6
12 19 12 21 -1 16 -9 -3 -17 -1 -20 6 -2 6 -6 3 -10 -7z"/>
<path d="M2100 9949 c0 -5 5 -7 10 -4 6 3 10 8 10 11 0 2 -4 4 -10 4 -5 0 -10
-5 -10 -11z"/>
<path d="M2111 9919 c-13 -11 -22 -22 -19 -24 2 -3 15 6 28 20 28 30 24 32 -9
4z"/>
<path d="M2235 9931 c3 -6 -3 -15 -12 -21 -17 -11 -17 -11 0 -6 11 3 20 0 24
-10 3 -8 19 -22 35 -30 16 -8 26 -19 23 -23 -5 -10 11 -25 37 -34 12 -4 15 -2
11 9 -3 8 -12 13 -19 10 -7 -3 -16 0 -20 6 -4 6 -3 8 2 5 6 -3 16 -2 24 3 12
7 11 10 -5 15 -61 20 -76 29 -71 41 3 8 -1 14 -11 14 -13 0 -13 3 -3 15 10 12
9 15 -4 15 -10 0 -15 -4 -11 -9z"/>
<path d="M2270 9930 c0 -5 4 -10 9 -10 6 0 13 5 16 10 3 6 -1 10 -9 10 -9 0
-16 -4 -16 -10z"/>
<path d="M2905 9929 c-4 -6 -4 -13 -1 -16 3 -4 6 -1 6 5 0 7 4 12 8 12 5 0 9
-7 9 -15 0 -8 -5 -15 -10 -15 -5 0 -4 -7 3 -15 14 -17 7 -21 -45 -29 -18 -2
-12 -4 15 -3 25 0 51 -3 58 -7 15 -9 11 39 -7 72 -13 24 -26 28 -36 11z"/>
<path d="M2050 9926 c0 -2 8 -10 18 -17 15 -13 16 -12 3 4 -13 16 -21 21 -21
13z"/>
<path d="M2169 9922 c-14 -6 -14 -9 -4 -19 10 -9 14 -8 18 8 3 10 4 19 4 18
-1 0 -9 -3 -18 -7z"/>
<path d="M2292 9904 c-7 -8 -8 -14 -3 -14 10 0 25 19 20 25 -2 1 -10 -3 -17
-11z"/>
<path d="M2370 9904 c0 -8 4 -13 8 -10 5 3 20 -6 35 -20 19 -18 27 -21 27 -10
0 8 -9 18 -20 21 -11 4 -18 10 -15 15 3 4 -2 11 -11 14 -22 9 -24 8 -24 -10z"/>
<path d="M2334 9878 c-4 -6 -3 -8 4 -4 5 3 12 1 14 -6 3 -8 6 -9 11 -1 4 6 0
13 -8 17 -8 3 -17 0 -21 -6z"/>
<path d="M2880 9880 c8 -5 20 -10 25 -10 6 0 3 5 -5 10 -8 5 -19 10 -25 10 -5
0 -3 -5 5 -10z"/>
<path d="M2099 9871 c11 -7 11 -9 0 -13 -8 -3 -10 -9 -6 -14 9 -10 28 16 21
28 -3 4 -11 8 -17 8 -8 0 -7 -3 2 -9z"/>
<path d="M2130 9865 c0 -9 6 -12 15 -9 8 4 15 7 15 9 0 2 -7 5 -15 9 -9 3 -15
0 -15 -9z"/>
<path d="M2170 9872 c0 -5 7 -9 15 -9 8 0 15 4 15 9 0 4 -7 8 -15 8 -8 0 -15
-4 -15 -8z"/>
<path d="M2217 9865 c8 -23 34 -55 45 -55 4 0 1 8 -7 18 -8 9 -21 26 -30 37
-15 19 -15 19 -8 0z"/>
<path d="M2648 9863 c7 -3 16 -2 19 1 4 3 -2 6 -13 5 -11 0 -14 -3 -6 -6z"/>
<path d="M2701 9861 c-7 -5 -10 -14 -6 -21 5 -9 3 -10 -11 -2 -11 5 -27 8 -36
7 -10 -2 -18 2 -18 8 0 5 -3 7 -6 4 -9 -9 16 -38 26 -32 5 3 11 1 15 -5 3 -5
-2 -10 -11 -10 -10 0 -15 -3 -11 -6 3 -4 14 -3 24 1 10 5 20 9 23 10 50 13 70
28 70 50 -1 6 -5 2 -11 -8 -10 -16 -12 -17 -22 -3 -8 10 -17 13 -26 7z m16
-23 c-3 -8 -6 -5 -6 6 -1 11 2 17 5 13 3 -3 4 -12 1 -19z"/>
<path d="M2803 9853 c9 -2 23 -2 30 0 6 3 -1 5 -18 5 -16 0 -22 -2 -12 -5z"/>
<path d="M2150 9835 c-10 -12 -9 -15 5 -15 10 0 15 -3 11 -7 -4 -4 -13 -8 -19
-8 -7 0 -12 -4 -12 -10 0 -5 5 -8 10 -7 47 17 59 5 23 -23 -22 -16 -22 -16 4
-1 31 18 42 20 33 6 -4 -6 1 -7 11 -3 12 4 15 3 10 -5 -4 -7 -15 -12 -24 -13
-14 0 -14 -2 -2 -6 8 -3 19 -11 23 -17 6 -7 7 -5 4 6 -3 9 1 22 8 28 11 9 18
8 32 -6 17 -17 17 -17 -4 -12 -13 3 -23 2 -23 -3 0 -5 6 -9 14 -9 8 0 20 -2
28 -3 7 -2 10 -2 5 0 -4 3 -4 9 -1 15 4 6 -6 21 -21 34 -22 18 -31 21 -42 13
-16 -14 -18 2 -1 19 16 16 2 28 -16 12 -13 -10 -18 -9 -30 3 -8 8 -12 17 -9
21 4 3 4 6 1 6 -3 0 -11 -7 -18 -15z"/>
<path d="M2190 9839 c0 -5 5 -7 10 -4 6 3 10 8 10 11 0 2 -4 4 -10 4 -5 0 -10
-5 -10 -11z"/>
<path d="M2387 9839 c7 -7 15 -10 18 -7 3 3 -2 9 -12 12 -14 6 -15 5 -6 -5z"/>
<path d="M2580 9831 c0 -12 9 -23 23 -27 21 -7 21 -7 2 -15 -16 -6 -17 -8 -3
-8 22 -1 27 9 17 34 -4 11 -8 14 -8 7 -1 -7 -6 -10 -11 -7 -8 5 -7 11 1 21 9
11 8 14 -5 14 -9 0 -16 -8 -16 -19z"/>
<path d="M2013 9833 c-21 -8 -15 -22 7 -16 11 3 20 9 20 14 0 10 -8 10 -27 2z"/>
<path d="M2545 9830 c-3 -6 1 -7 9 -4 18 7 21 14 7 14 -6 0 -13 -4 -16 -10z"/>
<path d="M2050 9820 c0 -5 5 -10 10 -10 6 0 10 5 10 10 0 6 -4 10 -10 10 -5 0
-10 -4 -10 -10z"/>
<path d="M2105 9820 c3 -5 10 -10 16 -10 5 0 9 5 9 10 0 6 -7 10 -16 10 -8 0
-12 -4 -9 -10z"/>
<path d="M2376 9800 c7 -28 12 -35 18 -29 2 2 -2 15 -10 29 l-15 25 7 -25z"/>
<path d="M2401 9813 c-1 -17 16 -25 25 -12 4 7 3 9 -4 5 -5 -3 -13 0 -15 6 -4
9 -6 10 -6 1z"/>
<path d="M2453 9805 c-7 -8 -9 -16 -4 -19 5 -3 12 1 15 10 8 22 4 25 -11 9z"/>
<path d="M2502 9811 c-10 -6 -8 -10 9 -14 12 -3 30 -1 38 4 14 9 14 10 -1 5
-10 -3 -18 -1 -18 4 0 12 -11 12 -28 1z"/>
<path d="M2094 9795 c3 -8 1 -15 -4 -15 -5 0 -7 -7 -4 -15 10 -24 20 -17 22
15 1 17 -3 30 -9 30 -6 0 -9 -7 -5 -15z"/>
<path d="M2035 9790 c3 -5 8 -10 11 -10 2 0 4 5 4 10 0 6 -5 10 -11 10 -5 0
-7 -4 -4 -10z"/>
<path d="M2300 9791 c0 -5 5 -13 10 -16 6 -3 10 -2 10 4 0 5 -4 13 -10 16 -5
3 -10 2 -10 -4z"/>
<path d="M2482 9778 c2 -6 10 -13 16 -14 7 -1 8 0 2 3 -5 2 -8 9 -4 14 3 5 0
9 -6 9 -7 0 -10 -5 -8 -12z"/>
<path d="M2341 9777 c2 -1 13 -9 24 -17 19 -14 19 -14 6 3 -7 9 -18 17 -24 17
-6 0 -8 -1 -6 -3z"/>
<path d="M2120 9740 c0 -20 -10 -39 -32 -60 -17 -17 -29 -32 -26 -35 9 -9 68
57 68 76 0 13 5 17 18 13 16 -5 16 -5 -1 6 -9 6 -15 15 -12 21 4 5 1 9 -4 9
-6 0 -11 -13 -11 -30z"/>
<path d="M2030 9735 c22 -23 66 -30 76 -13 4 5 -4 9 -17 8 -38 -3 -49 -1 -49
11 0 6 7 9 15 6 8 -4 17 -2 20 3 3 5 -10 9 -30 8 l-35 -1 20 -22z"/>
<path d="M2310 9730 c13 -24 16 -25 24 -4 3 8 2 12 -4 9 -6 -3 -10 -1 -10 4 0
6 -5 11 -10 11 -7 0 -7 -6 0 -20z"/>
<path d="M2483 9731 c1 -11 6 -17 14 -14 10 4 11 9 2 19 -15 19 -18 18 -16 -5z"/>
<path d="M2395 9730 c-4 -6 -11 -7 -17 -4 -6 4 -8 2 -5 -4 4 -5 16 -8 27 -5
11 3 17 9 14 14 -7 12 -11 11 -19 -1z"/>
<path d="M2145 9710 c3 -5 16 -10 28 -10 18 0 19 2 7 10 -20 13 -43 13 -35 0z"/>
<path d="M2340 9710 c0 -5 7 -10 16 -10 8 0 12 5 9 10 -3 6 -10 10 -16 10 -5
0 -9 -4 -9 -10z"/>
<path d="M2440 9710 c12 -8 12 -10 1 -10 -8 0 -12 -2 -9 -5 3 -3 13 -2 22 1
14 5 15 9 4 15 -7 5 -17 9 -23 9 -5 0 -3 -5 5 -10z"/>
<path d="M2386 9686 c7 -19 20 -21 30 -3 4 6 4 9 -1 5 -4 -4 -14 -3 -22 4 -11
8 -12 7 -7 -6z"/>
<path d="M2327 9683 c-4 -3 -7 -11 -7 -17 0 -6 5 -5 12 2 6 6 9 14 7 17 -3 3
-9 2 -12 -2z"/>
<path d="M2273 9655 c13 -27 24 -30 47 -14 12 8 10 9 -7 4 -16 -4 -23 -1 -28
15 -3 11 -10 20 -15 20 -4 0 -3 -11 3 -25z"/>
<path d="M2350 9676 c0 -2 7 -7 16 -10 8 -3 12 -2 9 4 -6 10 -25 14 -25 6z"/>
<path d="M2014 9616 c-11 -23 -11 -23 17 -7 15 8 25 19 22 24 -3 5 -9 4 -13
-3 -5 -8 -9 -9 -11 -1 -2 5 -9 0 -15 -13z"/>
<path d="M2239 9623 c-13 -16 -12 -17 4 -4 16 13 21 21 13 21 -2 0 -10 -8 -17
-17z"/>
<path d="M2120 9599 c0 -5 5 -7 10 -4 6 3 10 8 10 11 0 2 -4 4 -10 4 -5 0 -10
-5 -10 -11z"/>
<path d="M2118 9573 c7 -3 16 -2 19 1 4 3 -2 6 -13 5 -11 0 -14 -3 -6 -6z"/>
<path d="M2033 9553 c0 -7 3 -13 7 -13 3 0 14 6 23 13 16 11 15 12 -6 12 -13
0 -24 -6 -24 -12z"/>
<path d="M1240 9421 c0 -5 5 -13 10 -16 6 -3 10 -2 10 4 0 5 -4 13 -10 16 -5
3 -10 2 -10 -4z"/>
<path d="M1283 9358 c20 -27 35 -39 22 -18 -3 6 -1 10 5 10 6 0 8 5 5 11 -4 6
2 5 13 -2 16 -10 18 -17 11 -36 -12 -32 -12 -32 12 -26 16 4 17 8 7 14 -10 7
-11 9 0 9 7 0 10 5 6 11 -8 14 36 2 51 -14 7 -7 5 -8 -7 -4 -12 4 -15 2 -12
-8 8 -20 -6 -41 -16 -25 -4 7 -13 11 -19 9 -7 -3 2 -17 20 -34 18 -17 29 -24
25 -17 -4 6 -3 12 3 12 6 0 8 7 5 15 -4 8 -3 23 0 32 6 15 8 15 16 3 6 -8 10
-10 10 -4 0 23 -105 85 -152 88 l-26 3 21 -29z"/>
<path d="M1321 9334 c0 -11 3 -14 6 -6 3 7 2 16 -1 19 -3 4 -6 -2 -5 -13z"/>
<path d="M1456 9305 c-3 -9 -2 -13 4 -10 6 3 10 1 10 -4 0 -6 -12 -11 -27 -12
l-28 -1 25 -8 c20 -6 22 -9 9 -14 -9 -4 -16 -13 -16 -21 0 -17 4 -17 32 -5 18
8 18 9 2 9 -10 1 -15 6 -12 11 4 6 11 8 16 5 5 -3 6 2 2 11 -4 12 -3 15 5 10
16 -10 15 5 -2 27 -12 16 -14 16 -20 2z"/>
<path d="M1508 9303 c7 -3 16 -2 19 1 4 3 -2 6 -13 5 -11 0 -14 -3 -6 -6z"/>
<path d="M1505 9280 c-3 -5 -1 -10 4 -10 6 0 11 5 11 10 0 6 -2 10 -4 10 -3 0
-8 -4 -11 -10z"/>
<path d="M1670 9266 c0 -31 6 -34 13 -6 3 11 1 23 -4 26 -5 3 -9 -6 -9 -20z"/>
<path d="M1540 9269 c0 -5 5 -7 10 -4 6 3 10 8 10 11 0 2 -4 4 -10 4 -5 0 -10
-5 -10 -11z"/>
<path d="M1590 9249 c-10 -29 -13 -31 -19 -15 -7 17 -8 18 -14 3 -3 -9 -2 -17
3 -17 6 0 10 -7 10 -15 0 -8 -5 -15 -11 -15 -5 0 -7 6 -3 13 5 9 4 9 -6 0 -9
-9 -19 -9 -34 -2 -19 9 -20 9 -3 -4 9 -8 15 -21 11 -30 -3 -8 0 -18 7 -23 9
-5 11 -2 6 8 -8 22 2 29 26 17 13 -7 17 -7 13 -1 -3 6 -1 14 5 17 6 4 13 -2
16 -13 6 -23 28 -20 37 5 4 10 2 13 -8 10 -8 -3 -22 0 -32 8 -18 12 -17 14 5
32 19 15 22 23 14 38 -9 15 -12 13 -23 -16z"/>
<path d="M1503 9253 c-7 -2 -13 -12 -13 -21 1 -15 2 -15 11 1 6 9 14 15 20 12
5 -4 9 -1 9 4 0 12 -7 13 -27 4z"/>
<path d="M1630 9230 c-13 -8 -12 -10 3 -10 9 0 17 5 17 10 0 12 -1 12 -20 0z"/>
<path d="M1525 9220 c-3 -5 -1 -10 4 -10 6 0 11 5 11 10 0 6 -2 10 -4 10 -3 0
-8 -4 -11 -10z"/>
<path d="M1455 9210 c-19 -8 -19 -9 3 -9 12 -1 22 4 22 9 0 6 -1 10 -2 9 -2 0
-12 -4 -23 -9z"/>
<path d="M1650 9190 c6 -11 8 -26 4 -32 -4 -7 -3 -8 4 -4 18 11 15 56 -3 56
-13 0 -14 -4 -5 -20z"/>
<path d="M1495 9150 c3 -5 8 -10 11 -10 2 0 4 5 4 10 0 6 -5 10 -11 10 -5 0
-7 -4 -4 -10z"/>
<path d="M1654 9127 c-2 -7 -1 -24 5 -38 8 -21 9 -20 8 14 -1 39 -4 46 -13 24z"/>
<path d="M1520 9125 c0 -3 5 -11 10 -18 6 -7 16 -19 23 -27 7 -8 11 -13 10
-11 -2 2 3 11 10 19 10 13 9 15 -5 9 -12 -4 -19 0 -23 14 -6 17 -25 28 -25 14z"/>
<path d="M1620 9120 c0 -5 5 -10 11 -10 5 0 7 5 4 10 -3 6 -8 10 -11 10 -2 0
-4 -4 -4 -10z"/>
<path d="M1580 9116 c0 -2 7 -7 16 -10 8 -3 12 -2 9 4 -6 10 -25 14 -25 6z"/>
<path d="M1585 9070 c-3 -5 -1 -11 5 -15 5 -3 10 -11 10 -17 0 -6 -7 -5 -17 3
-16 13 -17 12 -4 -3 15 -20 26 -17 34 11 5 20 -18 38 -28 21z"/>
<path d="M1635 9040 c-3 -6 1 -7 9 -4 18 7 21 14 7 14 -6 0 -13 -4 -16 -10z"/>
<path d="M1604 9008 c-3 -5 -10 -5 -16 -2 -7 4 -8 2 -4 -5 6 -9 11 -9 22 0 11
9 14 8 14 -4 0 -25 15 -27 16 -3 2 22 -21 32 -32 14z"/>
<path d="M1660 8959 c0 -5 5 -7 10 -4 6 3 10 8 10 11 0 2 -4 4 -10 4 -5 0 -10
-5 -10 -11z"/>
<path d="M1633 8934 c-16 -17 -16 -21 1 -27 11 -4 13 -1 9 10 -4 11 -2 14 5 9
7 -4 12 -3 12 3 0 17 -14 20 -27 5z"/>
<path d="M1655 8830 c-3 -5 -1 -10 4 -10 6 0 11 5 11 10 0 6 -2 10 -4 10 -3 0
-8 -4 -11 -10z"/>
<path d="M1709 8814 c-1 -16 0 -42 1 -58 1 -21 -5 -35 -21 -47 l-23 -17 29 5
c25 5 27 3 22 -16 -3 -11 -1 -19 4 -15 5 3 9 -2 9 -10 0 -20 19 -70 25 -64 3
3 -3 29 -13 59 -10 30 -20 83 -21 119 -3 67 -10 95 -12 44z"/>
<path d="M1653 8759 c-2 -23 3 -25 10 -4 4 8 3 16 -1 19 -4 3 -9 -4 -9 -15z"/>
<path d="M1683 8762 c2 -12 6 -24 10 -28 3 -4 4 4 2 16 -6 30 -16 40 -12 12z"/>
<path d="M1653 8709 c-2 -23 3 -25 10 -4 4 8 3 16 -1 19 -4 3 -9 -4 -9 -15z"/>
<path d="M1660 8670 c0 -5 5 -10 11 -10 5 0 7 5 4 10 -3 6 -8 10 -11 10 -2 0
-4 -4 -4 -10z"/>
<path d="M1660 8634 c0 -9 5 -14 12 -12 18 6 21 28 4 28 -9 0 -16 -7 -16 -16z"/>
<path d="M1711 8627 c-1 -10 -4 -16 -8 -14 -5 3 -14 -1 -21 -9 -10 -11 -8 -15
7 -23 14 -8 22 -7 31 3 9 12 7 13 -12 9 -22 -5 -22 -5 -4 9 10 8 16 21 13 29
-4 10 -6 9 -6 -4z"/>
<path d="M1730 8568 c0 -4 11 -8 25 -8 18 0 28 -7 35 -24 5 -13 13 -27 19 -30
13 -9 -16 49 -32 62 -15 11 -47 12 -47 0z"/>
<path d="M1720 8540 c-8 -5 -12 -12 -9 -15 4 -3 12 1 19 10 14 17 11 19 -10 5z"/>
<path d="M1698 8503 c7 -3 16 -2 19 1 4 3 -2 6 -13 5 -11 0 -14 -3 -6 -6z"/>
<path d="M1817 8471 c3 -14 -3 -23 -23 -33 -15 -7 -29 -20 -32 -28 -2 -9 0
-11 5 -5 4 6 20 16 36 24 18 10 27 22 27 38 0 13 -4 23 -9 23 -5 0 -7 -9 -4
-19z"/>
<path d="M1690 8465 c0 -8 8 -15 18 -15 10 0 23 -5 30 -12 7 -7 12 -8 12 -4 0
9 -41 45 -52 46 -5 0 -8 -7 -8 -15z"/>
<path d="M1828 8396 c-3 -25 0 -40 9 -43 7 -3 10 -9 7 -14 -3 -5 0 -9 5 -9 6
0 11 -4 11 -10 0 -5 -7 -7 -15 -3 -9 3 -25 -3 -35 -12 -20 -18 -21 -17 -47 6
l-26 24 23 -32 c13 -18 36 -37 53 -42 25 -9 28 -9 17 4 -7 8 -16 12 -21 9 -5
-3 -6 1 -4 8 9 22 59 16 63 -7 2 -11 9 -24 14 -30 7 -7 8 -2 3 14 -4 13 -8 29
-10 35 -1 6 -6 25 -10 43 -5 22 -12 30 -22 26 -12 -5 -13 -2 -5 13 5 10 6 28
2 39 -6 16 -8 12 -12 -19z"/>
<path d="M1710 8401 c0 -6 4 -13 10 -16 6 -3 7 1 4 9 -7 18 -14 21 -14 7z"/>
<path d="M1801 8392 c-1 -20 -3 -21 -23 -11 -13 6 -20 8 -16 4 4 -4 3 -15 -1
-24 -6 -10 -4 -21 5 -29 13 -12 14 -10 8 12 -5 21 -3 25 10 20 17 -7 31 17 23
38 -3 7 -6 3 -6 -10z"/>
<path d="M1790 8339 c0 -5 5 -7 10 -4 6 3 10 8 10 11 0 2 -4 4 -10 4 -5 0 -10
-5 -10 -11z"/>
<path d="M1810 8240 c0 -5 5 -10 11 -10 5 0 7 5 4 10 -3 6 -8 10 -11 10 -2 0
-4 -4 -4 -10z"/>
<path d="M1847 8224 c7 -3 10 -11 7 -18 -7 -20 22 -27 37 -10 9 11 9 18 1 26
-9 9 -12 9 -12 -2 0 -11 -3 -11 -12 -2 -7 7 -17 12 -22 11 -6 0 -6 -3 1 -5z"/>
<path d="M3598 8908 c5 -5 16 -8 23 -6 8 3 3 7 -10 11 -17 4 -21 3 -13 -5z"/>
<path d="M3561 8874 c0 -11 3 -14 6 -6 3 7 2 16 -1 19 -3 4 -6 -2 -5 -13z"/>
<path d="M3616 8881 c-4 -5 -2 -12 3 -15 5 -4 12 -2 15 3 4 5 2 12 -3 15 -5 4
-12 2 -15 -3z"/>
<path d="M3579 8850 c-7 -5 -17 -6 -23 -3 -5 4 -7 -1 -3 -10 3 -9 1 -17 -6
-20 -6 -2 -12 -21 -12 -42 -1 -29 1 -34 9 -23 6 8 18 18 26 21 8 4 5 5 -8 3
-18 -3 -22 0 -20 12 2 9 11 16 20 16 11 -1 15 5 13 17 -5 24 20 25 33 3 5 -9
15 -15 21 -13 8 3 3 12 -12 26 -16 13 -29 18 -38 13z"/>
<path d="M3614 8785 c-10 -26 1 -38 16 -19 12 15 13 16 1 9 -11 -6 -13 -4 -8
8 3 10 4 17 1 17 -2 0 -7 -7 -10 -15z"/>
<path d="M3479 8723 l-24 -28 28 24 c25 23 32 31 24 31 -2 0 -14 -12 -28 -27z"/>
<path d="M3604 8729 c-3 -6 1 -18 10 -27 10 -11 16 -12 16 -4 0 7 -4 12 -10
12 -5 0 -10 5 -10 11 0 5 5 7 10 4 6 -3 10 -1 10 4 0 14 -17 14 -26 0z"/>
<path d="M3570 8720 c0 -5 5 -10 10 -10 6 0 10 5 10 10 0 6 -4 10 -10 10 -5 0
-10 -4 -10 -10z"/>
<path d="M3530 8700 c-9 -6 -10 -10 -3 -10 6 0 15 5 18 10 8 12 4 12 -15 0z"/>
<path d="M3560 8695 c0 -7 30 -13 34 -7 3 4 -4 9 -15 9 -10 1 -19 0 -19 -2z"/>
<path d="M3442 8685 c4 -4 0 -14 -10 -21 -9 -7 -14 -15 -11 -18 3 -3 14 2 23
13 14 15 15 21 4 27 -7 4 -10 4 -6 -1z"/>
<path d="M3509 8661 c8 -5 10 -14 6 -21 -5 -9 -4 -11 3 -6 18 11 14 36 -5 36
-14 0 -15 -2 -4 -9z"/>
<path d="M3551 8630 c-12 -36 -9 -38 13 -6 9 14 12 27 7 30 -5 3 -14 -8 -20
-24z"/>
<path d="M3455 8610 c3 -5 8 -10 11 -10 2 0 4 5 4 10 0 6 -5 10 -11 10 -5 0
-7 -4 -4 -10z"/>
<path d="M3449 8587 c6 -8 9 -16 6 -18 -2 -3 5 -6 16 -6 20 -2 20 -1 -2 18
-25 22 -37 25 -20 6z"/>
<path d="M3498 8583 c7 -3 16 -2 19 1 4 3 -2 6 -13 5 -11 0 -14 -3 -6 -6z"/>
<path d="M3580 8579 c0 -5 5 -7 10 -4 6 3 10 8 10 11 0 2 -4 4 -10 4 -5 0 -10
-5 -10 -11z"/>
<path d="M3564 8550 c0 -13 4 -16 10 -10 7 7 7 13 0 20 -6 6 -10 3 -10 -10z"/>
<path d="M3500 8549 c0 -5 5 -7 10 -4 6 3 10 8 10 11 0 2 -4 4 -10 4 -5 0 -10
-5 -10 -11z"/>
<path d="M3535 8530 c3 -5 8 -10 11 -10 2 0 4 5 4 10 0 6 -5 10 -11 10 -5 0
-7 -4 -4 -10z"/>
<path d="M3419 8528 c-6 -28 -4 -39 9 -50 16 -12 16 -11 2 6 -14 18 -13 19 3
13 10 -4 21 -7 23 -7 3 0 2 -6 -2 -12 -4 -8 -2 -8 7 1 11 11 11 14 1 18 -7 3
-19 11 -27 20 -8 8 -15 13 -16 11z"/>
<path d="M3390 8490 c0 -11 4 -20 9 -20 5 0 7 9 4 20 -3 11 -7 20 -9 20 -2 0
-4 -9 -4 -20z"/>
<path d="M3510 8500 c-13 -8 -13 -10 2 -10 9 0 20 5 23 10 8 13 -5 13 -25 0z"/>
<path d="M3363 8385 c-6 -6 -8 -18 -3 -24 5 -9 9 -5 13 10 7 28 6 31 -10 14z"/>
<path d="M3330 8339 c-7 -11 -9 -23 -6 -27 3 -3 6 0 6 7 0 7 4 10 8 7 4 -2 9
4 9 15 2 25 -4 24 -17 -2z"/>
<path d="M3320 8266 c14 -17 13 -18 -6 -12 -17 5 -26 -1 -47 -33 -15 -23 -24
-47 -21 -56 4 -10 2 -15 -7 -13 -9 2 -14 -7 -15 -24 -1 -16 3 -28 9 -28 5 0 7
7 3 15 -6 17 5 20 20 5 7 -7 11 -6 11 4 0 8 -4 13 -9 10 -12 -8 -10 10 4 24 9
9 9 12 0 12 -6 0 -9 7 -5 16 6 15 8 15 20 -2 12 -16 13 -16 13 -1 0 9 -4 17
-10 17 -5 0 -10 5 -10 10 0 6 3 9 8 9 4 -1 16 -1 26 0 20 1 20 1 0 17 -19 15
-18 15 3 9 28 -8 38 9 15 26 -16 13 -16 13 -2 -5z"/>
<path d="M3225 8010 c-10 -11 -13 -20 -7 -20 6 0 16 9 22 20 6 11 9 20 7 20
-2 0 -12 -9 -22 -20z"/>
<path d="M3117 7883 c-10 -9 -9 -33 1 -33 4 0 8 9 8 20 0 23 0 22 -9 13z"/>
<path d="M3040 7841 c0 -5 5 -13 10 -16 6 -3 10 -2 10 4 0 5 -4 13 -10 16 -5
3 -10 2 -10 -4z"/>
<path d="M2725 5221 c-48 -22 -79 -54 -100 -103 -54 -131 39 -244 190 -231
105 9 165 74 165 179 0 128 -134 209 -255 155z m136 -138 c11 -13 11 -17 2
-20 -7 -3 -13 -11 -13 -19 0 -27 -42 -5 -53 28 -10 29 42 38 64 11z"/>
<path d="M4392 5264 c-83 -30 -131 -114 -119 -204 6 -48 46 -104 89 -126 41
-21 127 -29 170 -15 79 26 132 117 116 199 -11 64 -34 92 -98 124 -71 36 -106
41 -158 22z m132 -140 c29 -11 12 -64 -21 -64 -21 0 -36 39 -22 56 13 16 20
17 43 8z"/>
</g>
</svg>
